<?xml version="1.0" encoding="UTF-8" standalone="no"?>
<!DOCTYPE svg PUBLIC "-//W3C//DTD SVG 1.1//EN" "http://www.w3.org/Graphics/SVG/1.1/DTD/svg11.dtd">
<svg viewBox="0 0 216 178" height="178.0pt" width="216.0pt" xmlns="http://www.w3.org/2000/svg" version="1.1">
<path d="M 0.00 0.00 L 216.00 0.00 L 216.00 178.00 L 0.00 178.00 L 0.00 0.00 Z" fill="#ff00ff" />
<path d="M 10.00 10.00 C 42.67 10.00 75.33 10.00 108.00 10.00 C 108.00 62.67 108.00 115.33 108.00 168.00 L 106.00 168.00 C 106.00 116.00 106.00 64.00 106.00 12.00 C 74.67 12.00 43.33 12.00 12.00 12.00 C 12.00 64.00 12.00 116.00 12.00 168.00 L 10.00 168.00 C 10.00 115.33 10.00 62.67 10.00 10.00 Z" fill="#0e080c" />
<path d="M 73.66 49.31 C 84.34 56.12 88.86 71.49 82.74 82.75 C 76.66 93.64 66.76 99.53 57.67 107.69 C 56.13 109.50 55.05 112.07 56.99 114.05 C 58.54 116.06 60.69 115.18 62.80 115.01 C 64.16 113.61 65.57 112.29 67.06 111.03 C 66.75 116.81 64.55 123.69 61.81 128.79 C 56.53 128.87 51.59 128.05 47.43 124.56 C 44.28 121.47 42.00 117.56 42.31 113.00 C 42.40 107.52 45.29 103.61 48.70 99.65 C 52.18 94.96 56.83 91.98 60.98 87.93 C 66.20 83.31 71.75 79.42 72.99 72.03 C 73.42 63.94 65.93 57.12 57.92 58.04 C 52.19 59.42 46.72 64.87 46.80 71.02 C 47.13 74.99 49.99 77.01 52.78 79.37 C 48.59 82.11 44.80 85.78 40.17 87.69 C 35.24 82.26 32.36 74.52 33.51 67.19 C 34.62 62.26 36.54 56.79 40.08 53.06 C 48.57 44.80 63.72 42.22 73.66 49.31 Z" fill="#0e080c" />
<path d="M 52.97 47.85 C 58.52 47.01 65.37 46.75 70.38 49.67 C 81.82 55.56 87.84 72.14 80.23 83.23 C 74.12 92.63 63.17 99.35 55.50 107.51 C 54.49 108.81 54.03 110.56 53.38 112.05 C 54.49 113.89 55.02 115.86 57.12 116.79 C 59.17 118.03 61.81 117.30 64.12 117.22 C 63.11 120.25 62.08 123.26 61.10 126.30 C 56.64 127.09 53.05 126.32 49.51 123.49 C 43.35 119.21 43.05 109.17 47.69 103.69 C 53.44 96.17 61.68 91.23 68.14 84.12 C 72.61 79.98 75.38 74.12 74.26 67.96 C 73.10 61.00 65.96 55.68 59.00 56.25 C 50.39 56.28 43.59 65.62 45.44 73.83 C 46.13 75.92 48.16 77.68 49.63 79.24 C 46.72 81.22 43.86 83.27 40.82 85.06 C 35.44 79.12 33.83 69.40 37.06 62.04 C 39.67 54.94 45.91 50.08 52.97 47.85 Z" fill="#e0078d" />
<path d="M 56.49 132.54 C 60.39 131.30 64.60 132.77 67.16 135.89 C 71.29 140.59 70.16 148.49 64.92 151.86 C 62.42 153.44 59.80 153.26 56.98 152.98 C 54.23 152.95 51.97 150.67 50.44 148.60 C 46.71 142.78 49.58 134.26 56.49 132.54 Z" fill="#0e080c" />
<path d="M 56.52 134.70 C 58.87 134.09 61.43 134.17 63.47 135.62 C 68.79 138.43 68.66 147.64 63.34 150.31 C 59.45 152.15 53.15 151.12 51.60 146.53 C 49.29 142.22 52.09 136.34 56.52 134.70 Z" fill="#e0078d" /></svg>