<?xml version="1.0" encoding="UTF-8" standalone="no"?>
<!DOCTYPE svg PUBLIC "-//W3C//DTD SVG 1.1//EN" "http://www.w3.org/Graphics/SVG/1.1/DTD/svg11.dtd">
<svg viewBox="0 0 336 178" height="178.0pt" width="336.0pt" xmlns="http://www.w3.org/2000/svg" version="1.1">
<path d="M 0.00 0.00 L 336.00 0.00 L 336.00 178.00 L 0.00 178.00 L 0.00 0.00 Z" fill="#ff00ff" />
<path d="M 10.00 10.00 C 62.67 10.00 115.33 10.00 168.00 10.00 L 168.00 12.00 C 116.00 12.00 64.00 12.00 12.00 12.00 C 12.00 64.00 12.00 116.00 12.00 168.00 L 10.00 168.00 C 10.00 115.33 10.00 62.67 10.00 10.00 Z" fill="#030101" />
<path d="M 51.99 132.73 C 52.00 135.16 52.00 137.58 52.00 140.00 C 74.52 140.00 97.05 140.00 119.57 140.00 C 121.18 138.33 122.81 136.67 124.42 135.00 C 132.12 135.05 139.81 134.91 147.50 135.08 C 145.32 139.26 141.49 141.25 138.80 145.00 C 141.34 148.26 144.65 150.90 147.40 153.99 C 139.41 154.00 131.41 153.99 123.41 154.00 C 122.14 152.66 120.85 151.34 119.58 150.00 C 97.05 150.00 74.53 150.00 52.00 150.00 C 52.00 152.01 52.00 154.03 52.00 156.04 C 51.16 156.00 50.33 155.96 49.49 155.92 C 48.53 155.35 47.57 154.79 46.60 154.24 C 45.25 153.61 43.90 152.98 42.56 152.34 C 40.61 150.98 38.62 149.72 36.46 148.71 C 33.83 147.71 31.75 146.22 29.66 144.38 C 30.96 143.48 32.23 142.55 33.52 141.66 C 34.49 141.20 35.47 140.74 36.45 140.28 C 37.11 139.95 37.78 139.62 38.44 139.28 C 41.28 137.98 43.91 136.41 46.54 134.74 C 47.18 134.36 47.83 134.00 48.49 133.65 C 49.64 133.28 50.80 132.98 51.99 132.73 Z" fill="#030101" />
<path d="M 49.53 135.91 C 49.56 138.05 49.58 140.20 49.60 142.34 C 69.40 142.21 89.20 142.34 109.00 142.28 C 112.57 142.22 116.28 142.58 119.82 142.06 C 121.61 140.81 123.13 138.99 124.60 137.38 C 130.79 137.26 136.99 137.29 143.18 137.46 C 140.85 140.04 138.49 142.58 136.00 145.01 C 138.38 147.26 140.55 149.64 142.45 152.31 C 136.57 152.55 130.70 152.33 124.82 152.47 C 123.17 150.90 121.53 149.31 119.92 147.70 C 96.49 147.64 73.06 147.72 49.62 147.67 C 49.56 149.47 49.50 151.28 49.44 153.09 C 44.08 150.77 39.13 147.69 33.85 145.19 C 34.86 143.99 35.88 142.97 37.32 142.29 C 41.45 140.24 45.31 137.76 49.53 135.91 Z" fill="#eb1d23" /></svg>