<?xml version="1.0" encoding="UTF-8" standalone="no"?>
<!DOCTYPE svg PUBLIC "-//W3C//DTD SVG 1.1//EN" "http://www.w3.org/Graphics/SVG/1.1/DTD/svg11.dtd">
<svg viewBox="0 0 336 178" height="178.0pt" width="336.0pt" xmlns="http://www.w3.org/2000/svg" version="1.1">
<path d="M 0.00 0.00 L 336.00 0.00 L 336.00 178.00 L 0.00 178.00 L 0.00 0.00 Z" fill="#ff00ff" />
<path d="M 9.99 9.99 C 62.66 9.99 115.34 10.01 168.01 9.98 L 168.01 12.02 C 116.01 11.98 64.00 12.02 12.00 12.00 C 12.02 64.00 11.98 116.01 12.02 168.01 L 9.98 168.01 C 10.01 115.34 9.99 62.66 9.99 9.99 Z" fill="#090c0f" />
<path d="M 102.19 34.16 C 105.30 33.43 106.34 36.26 107.69 38.35 C 108.57 40.59 109.73 43.62 110.27 45.89 L 110.46 47.65 C 111.47 48.43 112.42 48.80 112.94 50.09 C 109.23 50.54 110.23 53.37 108.60 55.57 C 105.98 56.11 107.32 51.85 107.80 50.59 C 109.86 48.00 107.69 44.81 107.37 41.74 C 106.78 40.53 105.45 36.13 103.67 37.46 C 104.27 40.39 104.03 43.07 104.57 45.98 C 104.49 50.83 103.87 55.08 104.23 60.03 C 103.42 62.35 103.87 64.64 103.68 67.07 C 105.30 70.72 105.91 74.28 108.47 77.48 C 111.54 78.86 115.08 80.78 118.49 79.40 C 119.17 78.67 119.80 77.90 120.39 77.07 C 120.87 73.90 119.38 70.15 116.91 68.11 C 115.96 67.60 115.73 66.98 116.22 66.27 C 117.11 66.06 118.08 66.27 119.14 66.87 C 120.03 65.36 121.34 64.42 121.70 62.63 C 122.93 62.48 126.08 64.50 126.88 65.47 C 126.70 67.52 124.09 66.17 123.18 67.12 L 122.68 67.90 L 122.13 68.96 C 121.66 70.23 121.80 71.39 122.55 72.44 C 123.23 74.76 123.56 77.18 121.73 79.04 C 123.91 81.58 122.17 84.07 123.05 86.85 C 124.54 89.22 127.33 86.97 128.61 89.37 C 128.30 94.96 129.16 100.50 128.88 106.02 C 126.37 108.97 123.14 111.75 121.08 115.06 C 118.46 117.81 115.93 120.61 113.19 123.25 C 112.40 125.03 111.88 125.42 110.12 126.22 L 109.74 127.15 L 109.17 127.74 C 108.39 127.93 107.83 128.54 107.50 129.57 C 103.39 134.10 98.87 138.27 94.60 142.65 C 93.46 143.69 91.99 145.02 90.74 143.25 C 88.92 141.61 87.05 138.97 84.95 137.91 C 83.30 136.31 81.61 134.79 80.13 133.03 C 79.88 132.33 79.47 131.70 78.88 131.14 C 78.75 129.98 78.18 129.22 77.17 128.89 C 75.89 126.55 73.88 123.75 74.13 120.99 C 73.73 119.28 75.29 117.25 72.77 116.74 L 72.15 116.39 C 71.06 115.65 70.25 114.41 69.05 113.87 C 65.93 112.04 65.13 109.23 64.71 105.87 L 64.34 105.10 C 64.02 104.33 63.54 103.64 62.89 103.02 C 61.75 102.83 60.75 102.94 59.89 103.34 L 59.15 103.76 C 56.46 104.74 56.01 102.60 53.95 101.65 L 53.10 101.28 C 49.05 98.40 48.76 94.45 47.77 89.96 L 47.29 88.96 C 46.30 87.29 44.80 85.48 42.96 84.75 L 42.12 84.03 L 41.62 82.89 L 41.64 82.11 L 42.17 80.87 L 42.68 80.04 L 43.23 78.89 L 43.69 78.07 L 44.30 76.96 L 44.67 76.15 C 45.96 74.88 46.32 73.26 47.26 71.75 L 47.57 71.14 C 48.10 70.01 48.68 68.89 49.29 67.80 L 49.63 67.14 C 50.10 65.34 51.65 64.46 52.22 62.83 L 52.65 62.07 C 53.40 60.37 54.55 59.07 55.81 57.74 C 56.60 55.26 59.23 53.95 60.29 51.78 L 60.68 51.18 C 62.06 49.91 63.37 48.06 65.01 47.18 C 65.65 47.34 66.25 47.69 66.80 48.23 C 66.86 49.15 67.00 50.04 67.22 50.91 C 67.41 51.96 67.63 52.99 67.89 54.00 C 68.97 55.96 68.82 60.49 70.86 61.51 C 72.89 61.16 74.86 60.82 76.92 61.08 C 77.41 63.04 76.44 65.10 76.88 66.87 C 78.54 68.37 81.65 69.27 83.40 67.38 C 85.86 65.78 88.44 68.50 89.23 70.72 C 92.02 74.39 86.78 77.27 89.49 80.49 C 90.11 82.55 92.45 83.33 93.36 80.97 L 93.70 80.07 C 94.89 78.67 95.89 76.97 98.00 77.18 C 100.09 76.79 101.35 79.08 102.56 80.43 C 103.40 82.62 102.14 86.09 99.97 87.01 C 98.61 86.86 96.67 87.50 95.78 86.24 C 95.23 85.50 94.59 85.02 93.85 84.80 L 93.59 85.96 L 94.11 86.82 C 97.39 87.70 97.56 89.61 99.14 92.00 C 97.52 93.91 95.47 97.07 92.78 97.21 L 93.20 98.19 L 93.77 99.23 C 93.71 99.94 93.65 100.66 93.60 101.38 C 95.98 102.81 98.71 103.01 101.27 104.06 C 101.96 102.69 101.90 100.83 101.73 99.34 C 99.69 98.90 95.02 100.73 94.28 98.24 C 97.09 96.70 98.73 96.94 101.88 96.99 C 103.85 93.21 102.66 89.38 103.09 85.26 C 103.73 84.80 104.36 84.32 104.98 83.82 C 105.18 81.00 104.31 80.26 106.22 77.89 L 105.72 76.87 L 105.26 76.07 L 104.79 74.93 L 104.28 74.01 L 103.73 72.90 L 103.35 72.09 C 103.00 69.28 100.42 67.83 101.15 65.11 C 103.15 61.43 101.52 55.90 102.17 51.91 L 102.74 51.05 C 103.38 48.86 102.73 46.27 103.10 43.96 C 101.85 41.24 102.00 37.12 102.19 34.16 Z" fill="#090c0f" />
<path d="M 103.67 37.46 C 105.45 36.13 106.78 40.53 107.37 41.74 C 107.69 44.81 109.86 48.00 107.80 50.59 C 107.32 51.85 105.98 56.11 108.60 55.57 C 110.23 53.37 109.23 50.54 112.94 50.09 C 112.42 48.80 111.47 48.43 110.46 47.65 L 110.27 45.89 L 110.70 47.64 C 112.08 48.48 113.61 48.36 115.06 48.87 C 114.60 49.13 114.13 49.39 113.67 49.66 L 115.27 50.85 C 115.09 52.96 112.56 52.62 111.53 54.48 C 110.48 55.59 109.44 59.02 111.93 59.00 C 112.66 55.96 113.95 53.78 117.05 52.68 C 118.30 53.03 119.09 53.79 119.42 54.94 C 118.91 57.04 116.50 58.55 115.06 60.04 C 115.45 61.76 117.97 60.65 118.65 59.66 C 119.53 58.28 120.86 58.07 121.64 56.50 C 123.91 55.41 126.05 58.18 126.90 59.95 C 125.53 58.94 124.61 56.25 122.77 56.64 C 121.51 57.45 122.72 58.93 123.51 59.55 C 124.85 60.81 126.11 62.14 127.37 63.47 C 127.42 65.09 127.64 66.39 129.48 66.70 L 129.73 66.71 C 127.49 66.42 125.38 66.80 123.18 67.12 C 124.09 66.17 126.70 67.52 126.88 65.47 C 126.08 64.50 122.93 62.48 121.70 62.63 C 121.34 64.42 120.03 65.36 119.14 66.87 C 118.08 66.27 117.11 66.06 116.22 66.27 C 115.73 66.98 115.96 67.60 116.91 68.11 C 119.38 70.15 120.87 73.90 120.39 77.07 C 119.80 77.90 119.17 78.67 118.49 79.40 C 115.08 80.78 111.54 78.86 108.47 77.48 C 105.91 74.28 105.30 70.72 103.68 67.07 C 103.87 64.64 103.42 62.35 104.23 60.03 C 103.87 55.08 104.49 50.83 104.57 45.98 C 104.03 43.07 104.27 40.39 103.67 37.46 Z" fill="#fdfdfd" />
<path d="M 115.06 48.87 L 115.58 48.93 L 116.71 49.64 C 116.79 51.17 118.95 51.57 120.14 52.09 L 120.81 52.89 C 120.87 54.29 121.14 55.50 121.64 56.50 C 120.86 58.07 119.53 58.28 118.65 59.66 C 117.97 60.65 115.45 61.76 115.06 60.04 C 116.50 58.55 118.91 57.04 119.42 54.94 C 119.09 53.79 118.30 53.03 117.05 52.68 C 113.95 53.78 112.66 55.96 111.93 59.00 C 109.44 59.02 110.48 55.59 111.53 54.48 C 112.56 52.62 115.09 52.96 115.27 50.85 L 113.67 49.66 C 114.13 49.39 114.60 49.13 115.06 48.87 Z" fill="#090c0f" />
<path d="M 115.58 48.93 L 116.71 49.64 L 115.58 48.93 Z" fill="#fdfdfd" />
<path d="M 60.68 51.18 L 60.29 51.78 L 60.68 51.18 Z" fill="#0372bc" />
<path d="M 67.22 50.91 C 68.38 51.16 68.60 52.19 67.89 54.00 C 67.63 52.99 67.41 51.96 67.22 50.91 Z" fill="#fdfdfd" />
<path d="M 102.74 51.05 L 102.17 51.91 L 102.74 51.05 Z" fill="#0372bc" />
<path d="M 64.54 52.34 C 65.43 54.70 66.42 56.97 66.77 59.50 C 67.11 60.92 68.70 62.58 68.23 63.98 C 61.14 68.76 54.32 74.06 47.18 78.70 C 47.18 75.98 48.69 74.18 49.85 71.87 C 53.75 65.31 57.87 58.67 62.89 52.92 C 63.36 52.27 63.90 52.07 64.54 52.34 Z" fill="#0372bc" />
<path d="M 120.14 52.09 L 120.78 52.25 L 120.81 52.89 L 120.14 52.09 Z" fill="#fdfdfd" />
<path d="M 122.77 56.64 C 124.61 56.25 125.53 58.94 126.90 59.95 C 128.10 62.74 131.12 62.61 129.84 66.67 L 129.48 66.70 C 127.64 66.39 127.42 65.09 127.37 63.47 C 126.11 62.14 124.85 60.81 123.51 59.55 C 122.72 58.93 121.51 57.45 122.77 56.64 Z" fill="#090c0f" />
<path d="M 52.29 62.37 L 52.65 62.07 L 52.22 62.83 L 52.29 62.37 Z" fill="#fdfdfd" />
<path d="M 74.64 63.29 C 74.91 64.14 74.93 64.92 74.69 65.64 C 72.67 66.54 70.52 67.50 68.31 67.77 C 69.41 65.70 72.56 64.17 74.64 63.29 Z" fill="#fdfdfd" />
<path d="M 49.63 67.14 L 49.29 67.80 L 49.63 67.14 Z" fill="#0372bc" />
<path d="M 73.81 67.73 L 74.95 67.59 C 76.73 69.13 78.68 70.16 81.03 70.54 C 82.53 70.43 83.63 69.31 84.95 68.63 C 85.92 69.44 86.71 70.44 87.62 71.32 C 87.27 72.64 85.83 73.47 85.59 74.95 C 84.75 77.47 86.78 78.21 86.57 80.51 C 85.45 80.27 84.37 80.24 83.35 80.41 C 83.17 82.87 85.04 82.08 86.70 82.36 C 87.62 83.69 89.38 85.29 89.33 86.98 C 88.69 88.96 88.53 90.98 88.15 93.01 C 87.41 93.91 86.97 94.87 86.84 95.91 C 87.48 96.62 88.12 97.32 88.79 98.00 C 85.70 101.03 83.24 101.77 79.18 99.82 C 78.59 100.51 77.95 101.13 77.25 101.68 C 74.58 100.41 73.33 102.80 71.50 99.91 C 72.15 98.85 73.31 98.05 73.74 96.89 C 73.72 95.58 73.11 94.11 71.56 94.28 C 71.74 96.12 71.01 97.46 69.00 97.42 C 65.98 97.21 63.04 95.08 60.69 93.30 C 59.31 92.15 59.23 90.75 59.10 89.08 C 59.67 87.32 62.20 87.17 62.81 85.19 C 60.70 84.80 58.74 85.84 57.39 87.36 C 57.09 89.10 57.74 91.04 57.59 92.88 C 57.70 94.49 59.63 94.58 60.74 95.26 C 62.39 95.95 63.31 97.36 64.76 98.30 C 66.02 98.70 67.28 99.06 68.53 99.49 C 70.13 100.68 71.94 102.91 73.95 103.24 C 77.27 103.05 80.72 103.42 84.00 103.06 C 86.02 102.15 87.91 101.64 90.12 101.39 C 91.71 102.12 92.56 103.03 92.67 104.12 C 91.12 104.54 89.58 104.89 88.04 105.39 C 82.69 105.22 77.32 105.39 71.97 105.30 C 70.01 104.68 68.21 104.52 66.51 103.48 C 65.37 102.43 64.39 101.15 63.13 100.26 C 60.40 100.19 58.83 102.49 56.38 100.61 C 52.25 98.40 50.12 94.37 49.80 89.79 C 49.81 87.54 48.22 85.75 46.64 84.31 C 45.82 83.47 44.77 82.98 45.63 81.67 C 52.05 80.54 57.80 74.26 62.99 70.41 C 63.53 71.03 64.14 71.49 64.81 71.78 C 65.36 70.61 65.24 67.51 67.23 68.53 L 67.28 70.98 C 69.43 70.45 71.32 68.19 73.75 67.79 L 73.78 70.15 C 74.91 71.72 73.62 73.14 74.30 74.48 C 75.28 74.33 76.15 74.42 76.93 74.75 C 77.16 78.32 72.86 75.40 73.36 78.65 L 74.11 79.02 C 76.68 77.88 79.09 77.16 81.94 77.69 C 81.86 75.34 79.12 75.85 79.22 72.98 C 77.42 71.55 74.62 69.97 73.81 67.73 Z" fill="#fdfdfd" />
<path d="M 122.68 67.90 L 122.13 68.96 L 122.68 67.90 Z" fill="#090c0f" />
<path d="M 47.57 71.14 L 47.26 71.75 L 47.57 71.14 Z" fill="#0372bc" />
<path d="M 103.35 72.09 L 103.73 72.90 L 103.35 72.09 Z" fill="#0372bc" />
<path d="M 104.28 74.01 L 104.79 74.93 L 104.28 74.01 Z" fill="#0372bc" />
<path d="M 44.67 76.15 L 44.30 76.96 L 44.67 76.15 Z" fill="#0372bc" />
<path d="M 105.26 76.07 L 105.72 76.87 L 105.26 76.07 Z" fill="#0372bc" />
<path d="M 65.62 77.45 L 66.49 77.38 C 66.48 79.32 67.59 80.78 67.65 82.68 C 66.62 82.86 66.07 82.20 66.00 80.69 C 65.58 81.65 63.79 81.58 63.96 82.52 C 63.57 81.08 62.87 79.80 62.40 78.40 L 63.86 77.96 L 63.79 80.11 C 64.31 79.97 64.85 80.04 65.42 80.33 L 65.62 77.45 Z" fill="#090c0f" />
<path d="M 43.69 78.07 L 43.23 78.89 L 43.69 78.07 Z" fill="#0372bc" />
<path d="M 99.25 79.60 C 100.39 81.21 100.85 82.85 99.62 84.57 C 98.02 85.25 95.85 84.82 95.75 82.85 C 95.60 80.73 96.88 78.68 99.25 79.60 Z" fill="#fdfdfd" />
<path d="M 42.68 80.04 L 42.17 80.87 L 42.68 80.04 Z" fill="#0372bc" />
<path d="M 93.70 80.07 L 93.36 80.97 L 93.70 80.07 Z" fill="#0372bc" />
<path d="M 107.02 81.01 C 111.46 81.47 115.92 82.36 120.30 82.53 C 120.18 84.30 120.91 85.90 120.63 87.64 C 119.29 88.56 117.06 87.33 115.49 87.33 C 112.74 86.74 110.02 86.44 107.36 85.52 C 106.52 84.39 106.81 82.33 107.02 81.01 Z" fill="#fdfdfd" />
<path d="M 41.33 82.38 L 41.64 82.11 L 41.62 82.89 L 41.33 82.38 Z" fill="#0372bc" />
<path d="M 42.12 84.03 L 42.96 84.75 L 42.33 84.62 L 42.12 84.03 Z" fill="#0372bc" />
<path d="M 109.02 88.09 C 114.05 89.19 119.30 89.91 124.48 89.72 C 125.92 90.93 126.55 93.13 126.48 94.98 C 126.51 98.43 126.72 101.96 126.35 105.40 C 119.57 112.66 112.87 119.80 106.02 127.01 C 101.71 132.08 97.13 136.65 91.99 140.86 C 89.54 139.93 87.47 137.25 85.49 135.51 C 81.05 130.45 75.54 125.66 76.28 118.27 C 79.90 118.17 83.55 118.57 87.16 118.85 C 90.18 119.13 91.95 120.99 95.00 119.99 C 97.86 119.20 101.97 120.39 104.34 118.43 C 104.17 108.42 104.61 98.45 104.70 88.45 C 105.27 86.61 107.75 87.72 109.02 88.09 Z" fill="#0372bc" />
<path d="M 66.39 91.43 C 67.17 91.97 69.08 91.99 68.52 93.29 C 67.72 93.43 66.93 93.55 66.13 93.66 C 64.69 93.62 64.23 91.46 62.97 90.95 L 60.68 91.53 L 59.91 89.88 C 62.03 88.43 66.45 87.36 66.39 91.43 Z" fill="#090c0f" />
<path d="M 47.29 88.96 L 47.77 89.96 L 47.29 88.96 Z" fill="#090c0f" />
<path d="M 91.73 88.53 C 93.73 88.19 97.04 90.38 95.71 92.86 C 94.40 95.47 92.52 93.81 90.88 95.53 L 89.45 95.67 C 90.14 93.35 91.24 90.99 91.73 88.53 Z" fill="#fdfdfd" />
<path d="M 93.20 98.19 L 94.28 98.24 C 95.02 100.73 99.69 98.90 101.73 99.34 C 101.90 100.83 101.96 102.69 101.27 104.06 C 98.71 103.01 95.98 102.81 93.60 101.38 C 93.65 100.66 93.71 99.94 93.77 99.23 L 93.20 98.19 Z" fill="#0372bc" />
<path d="M 53.10 101.28 L 53.95 101.65 L 53.10 101.28 Z" fill="#0372bc" />
<path d="M 59.89 103.34 L 59.15 103.76 L 59.89 103.34 Z" fill="#0372bc" />
<path d="M 64.34 105.10 L 64.71 105.87 L 64.34 105.10 Z" fill="#0372bc" />
<path d="M 101.23 104.61 L 101.64 105.88 C 101.25 109.64 101.54 113.44 101.19 117.18 C 92.91 118.22 82.82 115.37 74.49 115.28 C 72.14 113.39 70.10 111.19 67.72 109.32 C 67.68 108.38 67.63 107.45 67.58 106.51 C 69.91 106.36 71.69 107.68 74.00 107.45 C 79.01 107.30 84.01 107.56 89.01 107.21 C 93.30 106.38 97.31 106.97 101.23 104.61 Z" fill="#0372bc" />
<path d="M 72.15 116.39 L 72.77 116.74 L 72.15 116.39 Z" fill="#0372bc" />
<path d="M 109.74 127.15 L 109.17 127.74 L 109.74 127.15 Z" fill="#0372bc" />
<path d="M 77.17 128.89 C 78.18 129.22 78.75 129.98 78.88 131.14 C 77.71 130.65 77.14 129.89 77.17 128.89 Z" fill="#0372bc" />
<path d="M 80.13 133.03 C 81.61 134.79 83.30 136.31 84.95 137.91 C 83.49 137.48 80.75 134.40 80.13 133.03 Z" fill="#fdfdfd" /></svg>