<?xml version="1.0" encoding="UTF-8" standalone="no"?>
<!DOCTYPE svg PUBLIC "-//W3C//DTD SVG 1.1//EN" "http://www.w3.org/Graphics/SVG/1.1/DTD/svg11.dtd">
<svg viewBox="0 0 336 178" height="178.0pt" width="336.0pt" xmlns="http://www.w3.org/2000/svg" version="1.1">
<path d="M 0.00 0.00 L 336.00 0.00 L 336.00 178.00 L 0.00 178.00 L 0.00 0.00 Z" fill="#ff00ff" />
<path d="M 10.00 10.00 C 62.67 10.00 115.33 10.00 168.00 10.00 L 168.00 12.00 C 153.67 12.00 139.33 12.00 125.00 12.00 C 125.00 49.00 125.00 86.00 125.00 123.00 C 87.33 123.00 49.67 123.00 12.00 123.00 C 12.00 138.00 12.00 153.00 12.00 168.00 L 10.00 168.00 C 10.00 115.33 10.00 62.67 10.00 10.00 Z" fill="#0d0b0b" />
<path d="M 12.33 12.19 C 16.19 11.87 20.12 12.13 24.00 12.09 C 56.76 12.09 89.53 12.09 122.29 12.09 C 122.18 48.30 122.31 84.50 122.23 120.71 C 85.52 120.82 48.81 120.66 12.11 120.78 C 12.19 85.85 12.12 50.92 12.12 15.99 C 12.13 14.72 12.20 13.45 12.33 12.19 Z" fill="#f7941d" />
<path d="M 68.34 13.31 C 73.55 20.93 80.85 26.23 86.83 33.16 C 96.12 43.62 106.53 53.07 115.78 63.56 C 116.69 63.63 117.61 63.71 118.53 63.78 C 118.91 65.46 119.28 67.15 119.62 68.84 C 118.58 68.64 117.54 68.45 116.50 68.25 C 112.97 71.35 109.43 74.42 106.22 77.85 C 106.74 79.20 107.27 80.55 107.78 81.91 C 106.48 81.33 105.19 80.75 103.89 80.16 C 100.22 83.87 96.53 87.55 92.78 91.18 C 93.24 92.46 93.69 93.74 94.13 95.03 C 92.83 94.51 91.54 93.99 90.26 93.46 C 87.26 96.84 84.12 99.92 80.67 102.85 C 80.98 104.12 81.29 105.39 81.58 106.67 C 80.34 106.16 79.09 105.66 77.84 105.15 C 74.85 108.15 71.80 111.09 68.63 113.91 C 69.20 115.16 69.75 116.41 70.30 117.67 C 69.17 117.21 68.04 116.75 66.92 116.28 C 66.04 116.57 65.17 116.86 64.29 117.15 C 64.51 115.76 64.72 114.37 64.94 112.99 C 60.95 108.99 56.76 105.22 52.97 101.01 C 45.53 92.78 37.12 85.44 29.83 77.11 C 26.78 73.64 23.40 70.53 20.06 67.36 C 19.08 67.88 18.11 68.40 17.13 68.91 C 17.03 64.06 20.77 62.81 23.66 59.67 C 29.55 53.86 37.09 48.15 40.92 40.81 C 46.57 37.78 51.49 32.07 54.53 26.49 C 55.24 26.36 55.96 26.24 56.68 26.11 C 59.52 22.32 62.90 19.06 66.14 15.63 C 66.87 14.85 67.60 14.07 68.34 13.31 Z" fill="#0d0b0b" />
<path d="M 68.69 17.60 C 72.16 21.06 75.57 24.54 79.28 27.75 C 83.14 31.02 85.84 35.07 89.29 38.72 C 93.02 42.67 97.06 46.28 100.58 50.43 C 103.32 53.66 106.28 56.65 109.23 59.68 C 106.16 60.15 103.98 60.05 101.04 59.12 C 98.75 61.38 95.65 63.17 94.81 66.41 C 97.36 65.14 99.55 63.55 101.69 61.70 C 105.31 61.84 108.87 62.40 112.47 62.72 C 113.52 63.82 114.57 64.93 115.62 66.03 C 111.55 69.22 108.14 73.02 104.56 76.71 C 101.04 73.79 98.29 70.13 94.73 67.26 C 90.33 63.57 87.16 58.96 83.03 54.97 C 78.44 50.56 73.84 46.14 69.45 41.54 C 65.53 37.15 61.02 33.43 57.44 28.73 C 61.22 25.06 64.81 21.17 68.69 17.60 Z" fill="#fdfdfc" />
<path d="M 56.14 30.19 C 59.13 33.85 62.54 37.03 65.99 40.25 C 63.89 41.09 61.77 41.41 60.12 43.06 C 57.63 45.63 55.31 48.39 52.98 51.10 C 50.11 48.22 47.32 45.27 44.47 42.37 C 48.21 38.11 52.03 34.12 56.14 30.19 Z" fill="#fdfdfc" />
<path d="M 79.69 42.85 C 80.51 41.89 81.33 40.93 82.16 39.98 C 83.14 42.55 83.60 45.24 84.30 47.89 C 85.26 50.92 88.29 52.28 87.88 55.80 L 86.32 55.70 C 83.30 53.37 81.32 50.06 79.92 46.56 C 76.93 44.51 73.63 43.28 70.88 40.91 C 74.51 39.13 76.59 41.31 79.69 42.85 Z" fill="#0d0b0b" />
<path d="M 66.73 40.97 C 72.81 47.02 78.26 53.71 84.74 59.32 C 86.81 61.11 86.86 64.57 88.09 66.94 C 88.92 68.14 90.15 69.10 91.20 70.10 C 90.91 68.34 90.58 66.60 90.23 64.85 C 94.39 69.33 99.07 73.20 102.90 78.00 C 100.91 80.28 98.79 82.44 96.72 84.64 C 95.73 83.76 94.75 82.87 93.77 81.98 C 94.33 81.03 94.90 80.08 95.46 79.13 C 95.35 76.71 95.35 74.29 95.34 71.87 C 91.61 71.20 87.71 69.10 83.96 69.25 C 85.60 70.84 87.57 71.77 89.55 72.84 C 87.45 75.32 85.26 77.66 82.92 79.91 C 81.94 78.73 80.97 77.55 80.00 76.37 C 80.89 76.35 81.79 76.34 82.68 76.32 C 83.55 75.24 84.41 74.15 85.28 73.07 C 84.12 70.71 82.90 68.38 81.52 66.15 C 80.28 68.84 81.26 71.06 81.72 73.77 C 80.99 73.59 80.25 73.40 79.52 73.22 C 79.61 72.05 79.49 71.02 79.16 70.12 C 76.24 66.56 72.65 63.54 69.42 60.26 C 68.21 61.68 66.95 62.99 65.55 64.22 C 62.48 60.68 58.99 57.54 55.85 54.08 C 54.49 52.92 55.80 50.70 56.04 49.23 C 57.01 51.46 57.97 53.70 58.95 55.94 C 59.96 54.54 60.95 53.12 61.92 51.69 C 62.96 51.87 64.00 52.06 65.04 52.24 C 64.70 49.39 63.94 46.66 63.25 43.88 C 64.19 45.23 65.10 46.59 66.02 47.95 C 66.83 47.41 67.63 46.87 68.43 46.32 C 67.30 44.82 66.17 43.30 65.05 41.78 C 65.61 41.51 66.17 41.24 66.73 40.97 Z" fill="#fdfdfc" />
<path d="M 42.94 43.55 C 49.14 49.86 55.19 56.31 61.56 62.45 C 66.40 67.03 70.41 72.30 74.97 77.11 C 74.16 77.85 73.34 78.59 72.53 79.33 C 74.44 79.52 76.36 79.68 78.28 79.79 C 82.05 83.42 85.61 87.21 89.11 91.10 C 86.46 93.99 83.81 96.87 80.93 99.53 C 79.41 98.17 77.90 96.78 76.41 95.37 C 77.97 92.31 78.48 89.64 78.54 86.22 C 79.05 85.41 79.57 84.59 80.08 83.78 C 77.33 82.37 74.17 79.89 71.00 80.00 C 72.41 81.98 74.72 83.23 76.37 85.06 C 76.36 87.11 75.75 89.23 75.29 91.22 C 73.87 89.54 72.32 87.76 71.33 85.79 C 70.57 84.42 70.30 83.09 68.81 82.33 C 65.99 80.61 63.69 78.27 60.98 76.39 C 60.61 77.23 60.24 78.07 59.89 78.92 C 60.97 79.72 62.03 80.54 63.10 81.36 C 60.84 80.91 58.87 81.12 57.33 79.16 L 57.67 78.77 C 59.97 77.06 57.15 76.36 56.23 74.90 C 55.24 75.21 54.24 75.52 53.24 75.84 C 46.29 68.81 39.06 62.10 32.47 54.72 C 36.04 51.04 39.23 47.09 42.94 43.55 Z" fill="#fdfdfc" />
<path d="M 72.11 50.24 L 75.18 51.13 C 76.35 53.62 75.35 56.50 74.82 59.05 C 75.24 59.93 75.65 60.82 76.06 61.71 C 73.64 61.88 72.64 60.58 70.98 59.23 C 71.73 57.91 72.50 56.59 73.25 55.27 C 72.83 53.60 72.46 51.92 72.11 50.24 Z" fill="#0d0b0b" />
<path d="M 66.34 52.28 L 66.58 53.68 C 65.59 54.67 64.58 55.63 63.55 56.59 C 62.92 55.68 62.30 54.76 61.69 53.83 C 63.22 53.25 64.77 52.75 66.34 52.28 Z" fill="#0d0b0b" />
<path d="M 68.92 53.37 C 69.60 53.95 70.28 54.54 70.95 55.14 C 68.87 56.96 66.92 58.93 64.98 60.90 L 63.03 58.96 C 65.02 57.13 66.86 55.13 68.92 53.37 Z" fill="#0d0b0b" />
<path d="M 31.03 56.15 C 37.42 62.64 44.79 69.09 50.48 76.53 C 51.95 78.47 53.81 79.94 55.74 81.38 C 55.33 81.73 54.92 82.07 54.51 82.41 C 54.59 85.89 53.91 88.83 52.73 92.06 C 54.36 93.85 56.05 95.55 57.43 97.56 C 60.25 102.64 67.85 104.23 72.75 106.86 C 71.05 108.94 69.26 110.78 67.23 112.55 C 63.38 109.72 60.65 106.02 57.53 102.49 C 52.71 97.63 48.10 92.58 43.22 87.78 C 36.26 80.02 28.44 73.16 21.68 65.21 C 24.74 62.11 27.78 59.05 31.03 56.15 Z" fill="#fdfdfc" />
<path d="M 53.06 55.73 C 53.79 58.35 53.90 61.38 55.02 63.83 C 55.98 65.86 57.11 67.82 58.13 69.82 C 58.75 69.21 59.37 68.61 60.00 68.00 L 58.47 66.81 C 59.93 66.03 61.39 65.26 62.89 64.56 C 62.66 66.07 62.39 67.57 62.12 69.08 C 61.11 69.60 60.11 70.13 59.10 70.65 C 62.01 72.14 65.05 73.54 67.77 75.36 C 69.11 76.45 70.58 77.22 70.28 79.22 C 69.09 79.90 68.03 79.95 67.09 79.34 C 62.51 76.73 57.66 74.72 53.13 72.02 C 53.61 71.00 54.09 69.98 54.57 68.96 C 53.17 66.35 51.60 64.05 51.32 61.03 C 51.38 58.88 50.27 56.37 53.06 55.73 Z" fill="#0d0b0b" />
<path d="M 76.16 54.35 C 78.63 55.66 79.96 56.41 80.89 59.13 C 79.60 59.83 78.28 60.46 76.93 61.03 C 76.65 58.80 76.39 56.58 76.16 54.35 Z" fill="#0d0b0b" />
<path d="M 87.04 56.57 C 89.67 58.31 92.07 60.59 93.85 63.18 L 93.59 65.49 C 91.00 62.75 88.50 60.12 87.04 56.57 Z" fill="#0d0b0b" />
<path d="M 83.60 59.68 C 83.67 61.04 84.30 62.01 83.11 63.07 C 81.60 65.27 79.65 63.55 77.60 63.23 C 79.56 61.98 81.54 60.77 83.60 59.68 Z" fill="#0d0b0b" />
<path d="M 67.12 64.52 C 72.41 64.58 74.34 68.57 77.92 71.68 C 77.56 72.25 77.19 72.82 76.82 73.39 C 77.58 74.88 78.32 76.38 79.01 77.90 C 77.06 76.32 75.24 74.60 73.42 72.87 C 73.58 72.03 73.74 71.19 73.90 70.35 C 72.85 70.12 71.80 69.88 70.75 69.65 C 70.35 68.74 69.94 67.84 69.50 66.95 C 68.71 66.14 67.92 65.33 67.12 64.52 Z" fill="#fdfdfc" />
<path d="M 92.74 75.85 C 92.78 76.91 92.82 77.96 92.84 79.02 C 91.71 80.52 90.43 81.89 89.14 83.25 C 87.79 83.07 86.45 82.90 85.10 82.72 C 87.89 80.68 90.33 78.33 92.74 75.85 Z" fill="#fdfdfc" />
<path d="M 57.80 82.91 C 59.74 82.84 61.69 82.87 63.64 82.91 C 62.09 83.87 60.33 84.69 58.98 85.93 C 57.36 87.92 57.11 91.01 56.25 93.41 C 56.21 89.80 56.43 86.29 57.80 82.91 Z" fill="#fdfdfc" />
<path d="M 92.84 83.24 C 93.61 84.10 94.35 84.99 95.09 85.88 C 93.72 87.26 92.34 88.63 90.96 90.00 C 89.28 88.63 87.66 87.19 86.05 85.73 C 88.35 84.98 90.59 84.14 92.84 83.24 Z" fill="#fdfdfc" />
<path d="M 69.62 85.61 C 67.23 86.95 63.81 87.01 61.87 88.90 C 60.49 91.39 60.20 94.52 59.13 97.19 C 58.45 93.77 59.06 90.83 60.69 87.76 C 61.81 84.25 66.88 85.57 69.62 85.61 Z" fill="#fdfdfc" />
<path d="M 68.35 88.59 C 67.27 89.74 65.97 90.80 65.08 92.12 C 64.08 94.57 63.68 97.28 62.87 99.80 C 60.91 97.21 63.05 93.22 63.86 90.49 C 64.15 88.75 66.95 89.01 68.35 88.59 Z" fill="#fdfdfc" />
<path d="M 68.06 91.59 C 70.76 91.72 72.75 91.84 74.85 93.71 C 72.76 94.01 70.66 94.26 68.55 94.51 C 68.25 96.92 68.03 99.32 67.90 101.75 C 69.33 100.36 70.58 98.80 72.02 97.42 C 73.80 99.19 75.37 101.17 77.05 103.04 C 76.19 103.78 75.32 104.51 74.44 105.25 C 71.61 103.42 68.57 102.17 65.43 100.95 C 66.03 97.70 66.84 94.66 68.06 91.59 Z" fill="#fdfdfc" />
<path d="M 74.28 96.73 C 76.79 98.04 78.33 99.32 79.56 101.91 C 77.31 100.55 75.62 99.02 74.28 96.73 Z" fill="#fdfdfc" /></svg>