<?xml version="1.0" encoding="UTF-8" standalone="no"?>
<!DOCTYPE svg PUBLIC "-//W3C//DTD SVG 1.1//EN" "http://www.w3.org/Graphics/SVG/1.1/DTD/svg11.dtd">
<svg viewBox="0 0 336 178" height="178.0pt" width="336.0pt" xmlns="http://www.w3.org/2000/svg" version="1.1">
<path d="M 0.00 0.00 L 336.00 0.00 L 336.00 178.00 L 0.00 178.00 L 0.00 0.00 Z" fill="#ff00ff" />
<path d="M 10.00 10.00 C 62.67 10.00 115.33 10.00 168.00 10.00 L 168.00 12.00 C 116.00 12.00 64.00 12.00 12.00 12.00 C 12.00 64.00 12.00 116.00 12.00 168.00 L 10.00 168.00 C 10.00 115.33 10.00 62.67 10.00 10.00 Z" fill="#0d0808" />
<path d="M 81.96 42.15 C 87.27 43.51 86.86 48.26 90.33 52.27 L 90.64 52.75 C 92.69 55.84 94.44 59.10 96.34 62.28 L 96.60 62.75 L 97.36 64.10 C 100.61 63.33 104.32 59.93 107.59 61.28 C 111.40 63.43 114.16 67.45 117.44 70.35 L 117.34 70.61 C 116.35 72.61 113.82 74.76 113.67 76.98 C 115.45 79.42 118.04 81.40 120.24 83.45 L 120.54 83.76 C 121.81 85.40 123.37 86.59 122.86 88.88 C 121.51 91.37 119.35 92.57 117.06 94.05 C 112.85 91.55 109.07 88.27 105.62 84.81 C 104.11 86.62 102.61 88.44 101.09 90.24 C 100.96 92.00 100.97 93.84 100.56 95.57 C 99.67 97.12 98.17 98.39 96.72 99.40 L 96.30 99.61 C 94.02 100.57 91.68 100.92 89.24 101.12 C 87.12 102.59 85.17 104.15 83.30 105.91 C 86.80 110.13 91.10 112.20 92.74 117.71 C 90.75 120.63 89.12 123.63 84.98 122.89 C 80.50 122.28 78.21 115.09 74.64 113.65 C 74.56 113.63 74.49 113.64 74.42 113.67 C 72.47 114.73 70.66 116.07 68.83 117.32 C 64.38 114.93 62.34 110.69 58.63 107.61 L 58.28 107.19 C 56.75 102.92 61.68 99.39 63.60 95.88 C 57.41 92.43 51.62 88.37 46.38 83.60 C 44.49 81.78 42.90 79.84 43.28 77.03 C 43.76 73.09 45.38 69.25 46.66 65.51 C 48.38 62.70 50.46 60.09 52.33 57.37 C 55.84 52.30 60.86 48.57 66.16 45.55 L 66.69 45.29 C 71.37 43.48 76.89 41.55 81.96 42.15 Z" fill="#0d0808" />
<path d="M 66.41 45.41 L 66.69 45.29 L 66.16 45.55 L 66.41 45.41 Z" fill="#fbfcfb" />
<path d="M 81.06 44.56 C 84.39 46.23 86.29 50.73 88.17 53.80 C 90.84 58.23 92.60 63.48 95.92 67.44 C 99.38 67.39 102.40 63.31 105.83 63.39 C 109.14 64.43 111.41 68.49 113.53 71.06 C 110.08 75.66 106.52 80.41 102.42 84.44 C 101.13 85.78 99.68 87.15 98.72 88.75 C 97.94 91.33 98.92 93.87 96.99 95.98 C 95.30 97.97 91.53 97.88 89.15 98.53 C 86.86 98.79 85.09 100.98 83.38 102.38 C 79.87 105.69 75.47 107.59 72.00 110.93 C 70.85 112.03 69.69 112.82 68.27 113.52 C 65.99 110.80 62.68 108.16 61.31 104.86 C 61.67 101.22 65.79 98.09 67.70 95.07 C 61.13 90.59 53.75 86.47 48.02 80.93 C 45.74 78.94 46.13 75.67 47.10 73.12 C 49.13 68.24 51.33 62.83 54.79 58.80 C 58.91 53.82 64.47 50.00 70.51 47.74 C 73.84 46.53 77.49 44.65 81.06 44.56 Z" fill="#e91d24" />
<path d="M 90.33 52.27 L 90.64 52.75 L 90.33 52.27 Z" fill="#e91d24" />
<path d="M 72.94 52.49 C 76.40 54.77 79.36 57.83 81.90 61.08 C 82.70 62.25 83.25 63.82 81.84 64.76 C 75.66 70.31 69.70 76.00 64.00 82.05 C 59.61 79.29 56.85 74.72 53.03 71.03 C 56.22 67.86 59.84 65.20 62.96 61.96 C 66.20 58.65 69.27 55.35 72.94 52.49 Z" fill="#0d0808" />
<path d="M 73.08 56.93 C 75.54 57.97 77.34 60.75 79.02 62.75 C 73.82 67.98 69.14 73.34 63.10 77.74 C 60.94 75.73 59.01 73.61 57.30 71.20 C 62.85 66.73 67.86 61.74 73.08 56.93 Z" fill="#fbfcfb" />
<path d="M 96.34 62.28 L 96.60 62.75 L 96.34 62.28 Z" fill="#e91d24" />
<path d="M 117.44 70.35 L 117.48 70.40 L 117.34 70.61 L 117.44 70.35 Z" fill="#e91d24" />
<path d="M 80.53 72.76 C 84.07 71.94 88.90 71.74 91.98 74.03 C 98.09 78.49 98.30 88.85 93.05 94.03 C 87.86 98.41 78.01 97.76 74.22 91.74 C 72.26 88.64 72.13 84.45 72.70 80.92 C 73.73 77.17 76.76 73.87 80.53 72.76 Z" fill="#0d0808" />
<path d="M 81.50 75.65 C 84.16 74.93 87.97 74.79 90.11 76.85 C 94.69 80.56 94.76 88.38 90.01 92.00 C 85.59 95.38 78.48 93.94 76.40 88.55 C 74.01 83.65 76.30 77.47 81.50 75.65 Z" fill="#fbfcfb" />
<path d="M 110.77 78.94 C 114.33 81.55 117.75 83.95 119.73 88.06 C 118.88 89.03 118.02 90.00 117.16 90.96 C 113.92 88.77 109.82 85.76 108.44 81.96 C 107.99 80.54 109.90 79.79 110.77 78.94 Z" fill="#fbfcfb" />
<path d="M 83.13 81.17 C 85.24 80.18 87.70 81.78 88.09 84.00 C 88.38 86.52 86.59 88.36 84.01 87.92 C 80.44 87.74 80.14 82.55 83.13 81.17 Z" fill="#0d0808" />
<path d="M 84.68 82.39 C 85.39 83.06 86.01 83.79 86.66 84.53 C 86.14 85.25 85.63 85.98 85.12 86.70 C 84.20 86.20 83.18 86.11 82.75 85.04 C 83.02 83.57 83.01 82.66 84.68 82.39 Z" fill="#fbfcfb" />
<path d="M 120.24 83.45 L 120.54 83.76 L 120.24 83.45 Z" fill="#e91d24" />
<path d="M 96.72 99.40 L 96.30 99.61 L 96.72 99.40 Z" fill="#e91d24" />
<path d="M 58.28 107.19 L 58.63 107.61 L 58.32 107.44 L 58.28 107.19 Z" fill="#e91d24" />
<path d="M 80.98 107.00 C 83.88 110.06 88.08 113.19 89.65 117.16 C 90.15 119.34 88.40 119.59 87.03 120.72 C 84.07 118.36 81.19 116.16 78.80 113.19 C 78.19 112.33 77.05 111.28 77.14 110.17 C 78.16 108.91 79.64 107.91 80.98 107.00 Z" fill="#fbfcfb" />
<path d="M 74.64 113.65 L 74.42 113.67 C 74.49 113.64 74.56 113.63 74.64 113.65 Z" fill="#e91d24" /></svg>