<?xml version="1.0" encoding="UTF-8" standalone="no"?>
<!DOCTYPE svg PUBLIC "-//W3C//DTD SVG 1.1//EN" "http://www.w3.org/Graphics/SVG/1.1/DTD/svg11.dtd">
<svg viewBox="0 0 1440 728" height="728.0pt" width="1440.0pt" xmlns="http://www.w3.org/2000/svg" version="1.1">
<path d="M 0.00 0.00 L 1440.00 0.00 L 1440.00 728.00 L 0.00 728.00 L 0.00 0.00 Z" fill="#ff00fe" />
<path d="M 498.86 161.12 C 513.72 175.83 528.57 190.85 543.42 205.60 C 545.41 207.66 547.11 210.00 547.31 212.96 C 547.53 215.97 545.90 218.76 543.88 220.87 C 441.53 323.20 339.18 425.53 236.84 527.86 C 233.82 530.83 230.63 534.98 226.03 535.12 C 223.14 535.35 220.85 534.10 218.90 532.08 C 203.44 516.54 187.78 500.95 172.32 485.47 C 169.57 483.00 170.10 479.80 170.48 476.47 C 171.74 473.77 174.53 471.69 176.55 469.54 C 217.21 428.88 257.90 388.23 298.54 347.55 C 298.71 343.66 299.52 339.87 299.50 335.97 C 300.44 335.89 301.38 335.82 302.33 335.76 C 301.79 339.52 301.32 343.26 301.00 347.04 C 301.01 348.48 300.07 349.19 299.18 350.17 C 296.81 352.53 294.43 354.88 291.97 357.16 C 291.29 356.92 290.59 356.72 289.88 356.57 C 288.49 357.87 288.25 359.36 288.03 361.15 C 252.02 397.41 215.74 433.48 179.63 469.65 C 177.43 472.00 174.50 474.18 172.99 477.05 C 172.11 479.96 172.58 482.97 174.89 485.08 C 189.82 500.02 205.53 515.74 220.42 530.60 C 222.74 533.07 226.76 533.55 229.46 531.44 C 231.48 529.84 233.21 527.83 235.04 526.02 C 336.22 424.87 437.37 323.70 538.55 222.56 C 540.83 220.10 544.51 217.55 544.85 214.01 C 545.08 210.87 543.11 208.97 541.10 206.91 C 528.72 194.62 516.42 182.24 504.07 169.92 C 500.83 166.72 497.77 163.39 494.24 160.50 C 492.55 160.62 490.66 160.41 489.04 160.94 C 486.60 162.29 484.65 164.71 482.66 166.64 C 449.80 199.53 416.68 232.58 383.84 265.48 L 380.95 265.51 C 381.96 264.34 382.96 263.16 384.04 262.05 C 417.86 228.25 451.78 194.36 485.56 160.53 C 489.20 156.70 495.30 157.65 498.86 161.12 Z" fill="#e3011b" />
<path d="M 489.04 160.94 C 490.66 160.41 492.55 160.62 494.24 160.50 C 497.77 163.39 500.83 166.72 504.07 169.92 C 516.42 182.24 528.72 194.62 541.10 206.91 C 543.11 208.97 545.08 210.87 544.85 214.01 C 544.51 217.55 540.83 220.10 538.55 222.56 C 437.37 323.70 336.22 424.87 235.04 526.02 C 233.21 527.83 231.48 529.84 229.46 531.44 C 226.76 533.55 222.74 533.07 220.42 530.60 C 205.53 515.74 189.82 500.02 174.89 485.08 C 172.58 482.97 172.11 479.96 172.99 477.05 C 174.50 474.18 177.43 472.00 179.63 469.65 C 215.74 433.48 252.02 397.41 288.03 361.15 C 288.73 362.54 289.50 363.89 290.29 365.23 C 290.04 365.62 289.80 366.01 289.56 366.40 C 252.54 403.08 215.81 440.12 178.88 476.90 C 177.37 478.25 176.60 480.06 178.30 481.64 C 193.18 496.71 208.38 511.66 223.29 526.73 C 224.33 527.87 225.93 528.45 227.11 527.14 C 329.80 424.53 432.47 321.80 535.15 219.17 C 536.78 217.50 538.74 215.93 540.01 213.97 C 540.37 212.70 538.88 211.73 538.17 210.82 C 522.95 195.75 507.88 180.44 492.63 165.41 C 491.92 165.38 491.21 165.38 490.50 165.39 C 457.29 198.45 424.09 231.83 390.89 264.91 C 388.56 265.29 386.21 265.45 383.84 265.48 C 416.68 232.58 449.80 199.53 482.66 166.64 C 484.65 164.71 486.60 162.29 489.04 160.94 Z" fill="#fdfcfc" />
<path d="M 490.50 165.39 C 491.21 165.38 491.92 165.38 492.63 165.41 C 507.88 180.44 522.95 195.75 538.17 210.82 C 538.88 211.73 540.37 212.70 540.01 213.97 C 538.74 215.93 536.78 217.50 535.15 219.17 C 432.47 321.80 329.80 424.53 227.11 527.14 C 225.93 528.45 224.33 527.87 223.29 526.73 C 208.38 511.66 193.18 496.71 178.30 481.64 C 176.60 480.06 177.37 478.25 178.88 476.90 C 215.81 440.12 252.54 403.08 289.56 366.40 C 287.18 372.26 285.75 377.91 286.33 384.31 C 284.47 384.28 282.60 384.25 280.74 384.22 C 293.91 397.58 307.33 410.69 320.47 424.09 C 322.60 422.03 324.15 419.59 325.66 417.07 C 317.60 409.13 309.64 401.08 301.63 393.09 C 319.13 392.72 336.57 394.02 354.06 393.84 C 344.80 384.58 335.56 375.31 326.28 366.08 C 328.92 364.47 331.49 362.74 334.02 360.96 C 337.93 367.77 344.32 372.86 351.95 374.83 C 359.05 376.24 366.73 375.89 373.10 372.14 C 384.02 366.50 390.36 352.90 387.45 340.95 C 385.68 331.48 378.45 323.43 369.59 319.89 C 369.32 319.36 369.07 318.81 368.82 318.26 C 370.07 315.41 371.80 312.78 373.11 309.95 C 383.47 320.18 393.69 330.55 404.03 340.81 C 405.68 338.52 407.28 336.21 408.86 333.88 C 403.97 328.90 399.00 324.00 394.08 319.05 C 398.74 314.31 403.89 310.38 403.67 303.01 C 404.37 293.91 396.06 285.78 387.00 286.45 C 383.92 286.28 381.40 287.52 378.78 288.92 C 378.99 287.87 379.21 286.83 379.46 285.79 C 378.91 285.18 378.35 284.57 377.79 283.97 C 377.74 282.05 377.66 280.13 377.63 278.22 C 379.58 276.24 381.53 274.29 383.52 272.35 C 390.20 271.70 396.88 272.32 403.56 271.43 C 403.21 277.11 403.88 282.34 406.65 287.37 C 410.09 294.20 416.30 299.15 423.53 301.49 C 434.03 304.89 446.03 301.57 453.48 293.48 C 462.67 283.49 463.54 267.63 455.37 256.75 C 447.33 245.63 431.39 241.89 419.24 248.26 C 412.33 251.64 407.53 257.59 404.81 264.69 C 400.18 264.78 395.51 264.55 390.89 264.91 C 424.09 231.83 457.29 198.45 490.50 165.39 Z" fill="#e3011b" />
<path d="M 495.65 177.28 C 502.14 194.73 508.76 212.40 515.17 229.84 C 512.81 231.53 510.44 233.20 508.04 234.83 C 505.77 228.53 503.40 222.28 501.14 215.98 C 500.69 214.89 500.41 213.50 499.60 212.62 C 495.32 211.26 490.51 211.60 486.03 210.83 C 479.50 210.34 473.03 209.33 466.50 208.87 C 466.74 206.43 466.04 202.50 467.35 200.46 C 477.06 201.29 486.83 202.31 496.51 203.47 C 493.41 195.65 490.65 187.70 487.62 179.85 C 490.07 178.90 492.97 177.11 495.65 177.28 Z" fill="#fdfcfc" />
<path d="M 444.67 223.16 C 455.60 234.05 466.51 244.99 477.41 255.91 C 483.32 249.88 489.32 243.95 495.30 237.99 C 496.55 240.64 497.83 243.27 499.09 245.92 C 491.81 253.19 484.53 260.48 477.26 267.76 C 464.70 255.19 452.08 242.69 439.60 230.05 C 441.13 227.63 442.69 225.26 444.67 223.16 Z" fill="#fdfcfc" />
<path d="M 455.37 256.75 C 463.54 267.63 462.67 283.49 453.48 293.48 C 446.03 301.57 434.03 304.89 423.53 301.49 C 416.30 299.15 410.09 294.20 406.65 287.37 C 403.88 282.34 403.21 277.11 403.56 271.43 C 406.14 271.20 409.02 271.45 411.48 270.61 L 412.10 270.34 C 410.65 277.23 413.47 284.69 418.75 289.27 C 422.15 292.38 426.46 293.94 430.99 294.48 C 440.28 294.89 449.25 288.74 451.75 279.68 C 454.33 271.69 451.05 262.60 444.40 257.61 C 439.60 254.12 432.74 252.28 426.99 254.26 C 419.49 256.32 413.97 262.16 412.28 269.75 C 412.67 267.82 412.39 266.32 411.38 264.59 C 409.19 264.65 407.00 264.68 404.81 264.69 C 407.53 257.59 412.33 251.64 419.24 248.26 C 431.39 241.89 447.33 245.63 455.37 256.75 Z" fill="#fdfcfc" />
<path d="M 426.99 254.26 C 432.74 252.28 439.60 254.12 444.40 257.61 C 451.05 262.60 454.33 271.69 451.75 279.68 C 449.25 288.74 440.28 294.89 430.99 294.48 C 426.46 293.94 422.15 292.38 418.75 289.27 C 413.47 284.69 410.65 277.23 412.10 270.34 L 412.28 269.75 C 413.97 262.16 419.49 256.32 426.99 254.26 Z" fill="#e3011b" />
<path d="M 335.13 255.59 C 338.01 257.22 338.31 257.61 338.29 261.05 C 336.75 262.09 335.23 263.16 333.72 264.24 C 334.55 265.55 335.35 266.45 336.63 267.34 C 338.72 266.79 340.82 266.40 342.98 266.40 C 349.15 266.33 355.32 266.32 361.49 266.37 C 362.31 264.88 363.13 263.40 363.95 261.91 C 364.83 261.52 365.70 261.12 366.57 260.72 C 368.17 260.76 369.76 260.77 371.36 260.77 C 373.79 262.26 376.20 263.69 378.40 265.51 C 379.25 265.52 380.10 265.52 380.95 265.51 L 383.84 265.48 C 386.21 265.45 388.56 265.29 390.89 264.91 C 395.51 264.55 400.18 264.78 404.81 264.69 C 407.00 264.68 409.19 264.65 411.38 264.59 C 412.39 266.32 412.67 267.82 412.28 269.75 L 412.10 270.34 L 411.48 270.61 C 409.02 271.45 406.14 271.20 403.56 271.43 C 396.88 272.32 390.20 271.70 383.52 272.35 C 381.92 272.49 380.32 272.60 378.72 272.70 C 378.20 274.52 377.67 276.30 377.63 278.22 C 377.66 280.13 377.74 282.05 377.79 283.97 C 378.35 284.57 378.91 285.18 379.46 285.79 C 379.21 286.83 378.99 287.87 378.78 288.92 C 378.51 292.89 377.75 296.64 376.67 300.46 L 376.37 301.28 C 375.34 304.21 374.38 307.12 373.11 309.95 C 371.80 312.78 370.07 315.41 368.82 318.26 C 368.22 320.16 369.42 321.16 370.23 322.74 C 372.46 326.44 373.74 330.30 375.29 334.29 C 376.79 338.69 377.93 343.20 379.42 347.60 C 379.39 349.04 379.33 350.49 379.32 351.93 C 377.34 357.87 373.55 362.91 367.81 365.60 C 364.07 367.27 360.10 367.53 356.07 367.08 L 355.49 366.90 C 352.40 361.62 348.10 356.93 344.17 352.24 C 343.00 353.36 341.83 354.47 340.64 355.57 C 338.53 357.48 336.30 359.26 334.02 360.96 C 331.49 362.74 328.92 364.47 326.28 366.08 C 323.79 367.58 321.23 368.92 318.56 370.09 C 315.52 371.43 312.40 372.54 309.11 373.07 C 307.41 371.08 306.25 370.69 303.73 371.64 C 300.19 375.19 297.76 380.02 296.09 384.70 C 295.53 386.45 294.79 388.11 294.03 389.78 C 292.76 389.81 291.48 389.85 290.21 389.89 C 288.49 388.26 287.04 386.63 286.33 384.31 C 285.75 377.91 287.18 372.26 289.56 366.40 C 289.80 366.01 290.04 365.62 290.29 365.23 C 289.50 363.89 288.73 362.54 288.03 361.15 C 288.25 359.36 288.49 357.87 289.88 356.57 C 290.59 356.72 291.29 356.92 291.97 357.16 C 293.13 358.79 294.54 359.13 296.38 359.52 C 299.58 359.94 302.85 357.55 305.98 356.81 C 313.57 354.70 320.78 351.49 327.54 347.46 C 328.89 346.61 330.10 345.59 331.29 344.53 C 328.84 345.96 327.03 347.61 323.96 347.12 C 318.80 346.37 316.25 341.72 315.02 337.10 C 314.74 333.84 315.22 330.97 313.91 328.08 C 312.63 325.02 313.32 321.16 313.24 317.89 C 315.69 318.31 316.79 317.36 317.58 320.32 C 318.75 316.80 320.46 313.56 322.25 310.33 C 324.40 306.35 327.22 303.07 328.66 298.70 C 327.46 300.25 326.30 301.84 325.17 303.44 C 322.71 303.47 320.25 303.51 317.80 303.49 C 318.70 301.93 319.62 300.38 320.50 298.81 C 315.87 303.36 313.80 309.26 312.61 315.51 C 311.92 322.75 312.11 329.67 314.79 336.52 C 312.17 336.39 309.57 336.05 306.97 335.78 C 305.42 335.72 303.87 335.70 302.33 335.76 C 301.38 335.82 300.44 335.89 299.50 335.97 C 294.71 332.70 294.54 326.24 293.84 321.03 C 294.13 312.40 296.05 302.60 301.84 295.85 C 303.32 294.36 304.64 292.51 307.02 292.99 C 310.35 293.59 313.49 294.94 316.90 295.26 C 321.35 295.50 325.05 297.12 329.40 295.28 C 329.51 292.10 329.41 288.92 329.45 285.75 C 330.17 285.69 330.89 285.64 331.61 285.60 C 332.96 287.93 333.63 289.64 333.39 292.43 C 333.35 293.42 333.30 294.42 333.24 295.42 L 333.68 295.28 C 337.75 295.10 341.77 295.43 345.82 295.69 C 349.67 297.64 353.45 299.58 356.97 302.09 C 356.67 300.01 356.35 297.94 355.93 295.87 C 357.43 296.65 358.97 297.34 360.47 298.10 C 360.82 296.66 361.15 295.21 361.46 293.77 C 362.03 291.47 362.38 289.25 362.46 286.89 C 362.71 285.58 363.02 284.28 363.38 283.00 C 363.99 281.13 364.33 279.20 364.61 277.26 C 363.01 276.07 361.63 274.81 360.29 273.34 C 351.85 273.59 343.39 273.70 334.95 273.59 C 330.13 273.18 327.06 268.85 327.17 264.20 C 327.51 262.03 328.79 259.90 329.82 257.97 C 331.59 257.17 333.34 256.34 335.13 255.59 Z" fill="#010101" />
<path d="M 336.68 259.03 C 335.48 260.98 332.78 261.46 331.76 263.81 C 331.26 265.81 332.98 267.25 333.97 268.77 C 343.35 268.86 352.73 268.64 362.11 268.75 C 360.36 271.47 357.81 270.93 355.00 271.17 C 348.31 271.15 341.62 271.23 334.93 271.28 C 329.93 270.99 327.37 264.28 330.66 260.60 C 332.26 258.94 334.46 257.32 336.68 259.03 Z" fill="#fdfcfc" />
<path d="M 371.02 262.70 C 373.17 263.95 376.02 265.68 376.84 268.17 C 376.90 269.56 376.22 270.98 375.84 272.32 C 375.18 270.81 374.49 269.32 373.83 267.81 C 373.73 269.86 373.69 271.91 373.56 273.96 L 371.62 273.49 C 371.38 271.12 371.03 269.05 369.97 266.90 C 369.77 268.83 369.64 270.77 369.45 272.69 C 367.95 271.76 367.21 270.53 367.23 269.01 C 367.14 266.89 365.95 265.48 364.75 263.84 C 366.79 262.58 368.73 262.88 371.02 262.70 Z" fill="#fdfcfc" />
<path d="M 365.45 266.71 C 365.50 268.30 365.54 269.88 365.56 271.47 C 368.45 274.88 371.30 275.70 375.74 274.87 C 375.51 276.33 375.34 277.79 375.18 279.25 C 372.89 278.58 370.51 278.51 368.20 278.00 C 366.71 275.53 364.36 275.05 362.51 273.11 C 362.04 270.20 362.92 268.20 365.45 266.71 Z" fill="#fdfcfc" />
<path d="M 393.00 267.14 C 398.75 267.37 404.42 266.72 410.15 266.64 L 409.66 269.24 C 399.56 269.85 389.43 269.08 379.38 269.99 L 377.80 268.94 C 382.31 266.90 388.11 267.30 393.00 267.14 Z" fill="#fdfcfc" />
<path d="M 409.66 269.24 C 402.81 269.86 395.86 269.34 389.00 269.70 C 386.03 269.90 382.19 271.14 379.38 269.99 C 389.43 269.08 399.56 269.85 409.66 269.24 Z" fill="#e3011b" />
<path d="M 383.52 272.35 C 381.53 274.29 379.58 276.24 377.63 278.22 C 377.67 276.30 378.20 274.52 378.72 272.70 C 380.32 272.60 381.92 272.49 383.52 272.35 Z" fill="#fdfcfc" />
<path d="M 366.46 280.13 C 369.45 280.43 372.43 281.05 375.35 281.74 C 375.44 282.49 375.53 283.24 375.62 283.98 C 372.60 283.71 369.60 283.35 366.58 283.13 C 366.52 282.13 366.48 281.13 366.46 280.13 Z" fill="#fdfcfc" />
<path d="M 363.38 283.00 C 363.02 284.28 362.71 285.58 362.46 286.89 C 361.72 287.59 360.96 288.54 359.97 288.87 C 355.30 289.62 350.61 289.56 345.97 290.77 C 341.60 291.61 337.71 293.47 333.68 295.28 L 333.24 295.42 C 333.30 294.42 333.35 293.42 333.39 292.43 C 339.60 290.04 346.34 287.58 353.02 287.20 C 355.22 287.01 357.40 286.64 359.60 286.43 C 360.86 285.28 362.11 284.14 363.38 283.00 Z" fill="#e3011b" />
<path d="M 362.46 286.89 C 362.38 289.25 362.03 291.47 361.46 293.77 C 356.14 293.64 351.00 294.58 345.82 295.69 C 341.77 295.43 337.75 295.10 333.68 295.28 C 337.71 293.47 341.60 291.61 345.97 290.77 C 350.61 289.56 355.30 289.62 359.97 288.87 C 360.96 288.54 361.72 287.59 362.46 286.89 Z" fill="#fdfcfc" />
<path d="M 387.00 286.45 C 396.06 285.78 404.37 293.91 403.67 303.01 C 403.89 310.38 398.74 314.31 394.08 319.05 C 399.00 324.00 403.97 328.90 408.86 333.88 C 407.28 336.21 405.68 338.52 404.03 340.81 C 393.69 330.55 383.47 320.18 373.11 309.95 C 374.38 307.12 375.34 304.21 376.37 301.28 C 380.53 305.58 384.80 309.77 389.03 314.00 C 391.37 311.54 394.51 309.18 396.03 306.10 C 397.10 303.33 396.72 299.50 395.00 297.04 C 392.73 293.66 387.69 292.83 384.08 294.15 C 381.24 295.57 378.94 298.27 376.67 300.46 C 377.75 296.64 378.51 292.89 378.78 288.92 C 381.40 287.52 383.92 286.28 387.00 286.45 Z" fill="#fdfcfc" />
<path d="M 361.46 293.77 C 361.15 295.21 360.82 296.66 360.47 298.10 C 358.97 297.34 357.43 296.65 355.93 295.87 C 356.35 297.94 356.67 300.01 356.97 302.09 C 353.45 299.58 349.67 297.64 345.82 295.69 C 351.00 294.58 356.14 293.64 361.46 293.77 Z" fill="#e3011b" />
<path d="M 384.08 294.15 C 387.69 292.83 392.73 293.66 395.00 297.04 C 396.72 299.50 397.10 303.33 396.03 306.10 C 394.51 309.18 391.37 311.54 389.03 314.00 C 384.80 309.77 380.53 305.58 376.37 301.28 L 376.67 300.46 C 378.94 298.27 381.24 295.57 384.08 294.15 Z" fill="#e3011b" />
<path d="M 331.77 298.57 C 332.17 298.05 332.85 297.72 333.83 297.56 C 334.17 298.64 334.51 299.72 334.90 300.79 C 335.54 299.75 336.19 298.72 336.84 297.69 C 343.89 297.28 349.85 300.07 355.27 304.30 C 353.83 306.38 351.35 307.66 349.37 309.33 C 347.66 309.21 345.94 309.11 344.23 309.05 C 343.80 309.55 343.36 310.06 342.93 310.56 C 344.73 310.74 346.05 311.10 347.69 311.89 C 347.50 312.83 347.31 313.77 347.12 314.71 C 347.81 314.73 348.50 314.76 349.19 314.79 C 349.75 313.25 350.07 311.35 351.06 310.04 C 352.75 308.40 355.01 307.36 356.72 305.76 C 357.98 304.19 358.61 302.29 359.80 300.68 C 361.03 303.91 362.45 306.64 361.03 310.14 C 360.07 313.51 357.73 315.15 354.85 316.83 C 355.47 320.40 355.93 323.86 354.15 327.20 C 352.34 330.69 349.08 332.78 345.30 333.61 C 346.14 332.32 346.99 331.05 347.68 329.68 C 348.28 328.01 347.53 325.81 347.31 324.10 C 346.67 321.22 347.51 318.76 347.86 315.93 C 344.85 316.90 344.97 320.57 344.66 323.17 C 345.27 324.80 345.90 326.43 346.49 328.07 C 345.66 329.40 345.12 331.05 343.68 331.83 C 342.08 332.92 339.58 332.50 337.71 332.75 C 341.56 335.09 345.69 336.02 349.83 333.74 C 354.51 331.62 357.22 326.97 357.66 321.97 C 358.01 318.83 358.92 315.93 361.25 313.67 C 362.90 315.96 362.48 318.35 362.51 321.00 C 362.57 326.75 358.32 331.72 353.78 334.78 C 349.02 337.87 343.76 338.48 338.20 338.27 C 337.63 339.31 337.08 340.41 336.35 341.32 C 334.41 343.04 331.18 343.08 329.35 341.18 C 329.31 339.48 329.61 337.85 329.87 336.18 C 328.85 336.90 327.85 337.65 326.87 338.43 C 322.90 335.24 322.68 330.72 322.82 326.00 C 323.17 322.28 323.03 318.75 325.77 315.87 C 325.99 318.49 327.39 319.56 328.94 321.35 C 328.27 319.62 327.66 317.88 327.12 316.10 C 327.81 315.12 328.46 314.12 329.08 313.09 C 326.83 313.48 326.60 313.86 325.45 315.89 C 324.96 315.19 324.46 314.49 323.97 313.79 L 324.78 316.20 C 322.95 317.05 322.70 319.28 322.04 321.00 C 320.17 326.48 319.41 333.58 322.09 338.92 C 323.38 341.68 325.76 342.21 328.26 343.45 C 325.14 344.73 322.48 344.33 320.35 341.58 C 316.84 336.07 317.75 329.48 319.40 323.51 C 321.95 313.90 327.72 307.35 331.77 298.57 Z" fill="#fdfcfc" />
<path d="M 320.50 298.81 C 319.62 300.38 318.70 301.93 317.80 303.49 C 320.25 303.51 322.71 303.47 325.17 303.44 C 326.30 301.84 327.46 300.25 328.66 298.70 C 327.22 303.07 324.40 306.35 322.25 310.33 C 320.46 313.56 318.75 316.80 317.58 320.32 C 316.79 317.36 315.69 318.31 313.24 317.89 C 313.32 321.16 312.63 325.02 313.91 328.08 C 315.22 330.97 314.74 333.84 315.02 337.10 L 314.79 336.52 C 312.11 329.67 311.92 322.75 312.61 315.51 C 313.80 309.26 315.87 303.36 320.50 298.81 Z" fill="#fdfcfc" />
<path d="M 344.23 300.80 C 345.53 301.48 343.64 302.95 343.26 303.72 C 342.53 303.07 341.80 302.42 341.07 301.77 C 341.88 301.06 343.24 299.44 344.23 300.80 Z" fill="#010101" />
<path d="M 301.70 300.06 C 305.91 301.63 309.86 302.72 314.38 302.92 C 315.03 304.29 314.08 305.25 313.65 306.56 C 311.98 309.99 311.43 313.58 310.53 317.25 C 305.99 316.15 301.50 316.39 296.88 316.38 C 297.26 310.74 298.96 305.00 301.70 300.06 Z" fill="#fdfcfc" />
<path d="M 336.81 317.27 C 338.26 317.32 337.33 319.34 337.42 320.25 C 336.77 320.33 336.12 320.41 335.47 320.48 C 334.92 319.90 334.38 319.31 333.84 318.72 C 334.72 318.14 335.68 316.43 336.81 317.27 Z" fill="#010101" />
<path d="M 368.82 318.26 C 369.07 318.81 369.32 319.36 369.59 319.89 C 378.45 323.43 385.68 331.48 387.45 340.95 C 390.36 352.90 384.02 366.50 373.10 372.14 C 366.73 375.89 359.05 376.24 351.95 374.83 C 344.32 372.86 337.93 367.77 334.02 360.96 C 336.30 359.26 338.53 357.48 340.64 355.57 C 343.79 361.48 348.81 365.68 355.49 366.90 L 356.07 367.08 C 360.10 367.53 364.07 367.27 367.81 365.60 C 373.55 362.91 377.34 357.87 379.32 351.93 C 379.33 350.49 379.39 349.04 379.42 347.60 C 379.80 342.28 378.46 338.50 375.29 334.29 C 373.74 330.30 372.46 326.44 370.23 322.74 C 369.42 321.16 368.22 320.16 368.82 318.26 Z" fill="#fdfcfc" />
<path d="M 316.62 319.16 C 316.52 322.75 316.15 326.29 315.14 329.75 C 315.32 326.14 315.53 322.63 316.62 319.16 Z" fill="#fdfcfc" />
<path d="M 365.05 321.45 L 365.98 321.11 C 371.08 329.63 374.21 338.78 376.26 348.45 C 373.87 348.70 371.52 349.04 369.16 349.46 C 368.28 351.60 367.58 353.75 367.06 355.99 C 364.79 356.83 362.49 356.80 360.11 356.82 C 358.16 354.07 356.35 351.24 354.29 348.59 C 351.90 345.45 348.86 343.14 346.11 340.18 C 349.24 339.53 351.79 338.58 354.60 337.01 C 354.60 337.68 354.61 338.35 354.62 339.02 C 355.90 340.68 357.18 342.33 358.29 344.11 C 359.75 341.28 360.88 338.26 361.89 335.24 C 364.28 334.71 366.69 334.32 369.09 333.91 C 367.81 331.01 367.00 328.01 364.82 325.71 C 364.79 328.21 365.56 330.09 366.72 332.24 C 364.79 332.74 362.82 333.14 360.87 333.52 C 359.96 335.62 359.02 337.71 358.18 339.85 C 357.19 339.21 356.22 338.54 355.27 337.85 C 355.51 337.20 355.74 336.55 355.97 335.91 C 361.08 332.33 364.16 327.69 365.05 321.45 Z" fill="#fdfcfc" />
<path d="M 311.30 331.10 L 311.79 333.42 C 308.48 333.28 305.27 332.74 301.95 333.05 C 300.16 333.39 299.81 332.16 298.85 331.04 C 302.88 329.77 307.13 330.66 311.30 331.10 Z" fill="#fdfcfc" />
<path d="M 327.07 330.05 C 327.37 331.32 327.40 333.76 326.00 334.38 C 324.12 333.82 325.81 330.56 327.07 330.05 Z" fill="#010101" />
<path d="M 328.87 330.59 C 330.28 331.71 329.64 334.11 327.68 333.96 C 327.31 332.70 327.71 331.58 328.87 330.59 Z" fill="#010101" />
<path d="M 375.29 334.29 C 378.46 338.50 379.80 342.28 379.42 347.60 C 377.93 343.20 376.79 338.69 375.29 334.29 Z" fill="#e3011b" />
<path d="M 306.97 335.78 C 306.45 340.50 305.70 345.12 305.91 349.89 C 302.76 353.12 299.50 356.25 296.38 359.52 C 294.54 359.13 293.13 358.79 291.97 357.16 C 294.43 354.88 296.81 352.53 299.18 350.17 C 300.07 349.19 301.01 348.48 301.00 347.04 C 301.32 343.26 301.79 339.52 302.33 335.76 C 303.87 335.70 305.42 335.72 306.97 335.78 Z" fill="#fdfcfc" />
<path d="M 306.97 335.78 C 309.57 336.05 312.17 336.39 314.79 336.52 L 315.02 337.10 C 316.25 341.72 318.80 346.37 323.96 347.12 C 327.03 347.61 328.84 345.96 331.29 344.53 C 330.10 345.59 328.89 346.61 327.54 347.46 C 320.78 351.49 313.57 354.70 305.98 356.81 C 302.85 357.55 299.58 359.94 296.38 359.52 C 299.50 356.25 302.76 353.12 305.91 349.89 C 305.70 345.12 306.45 340.50 306.97 335.78 Z" fill="#e3011b" />
<path d="M 363.45 338.40 C 364.82 338.42 365.81 338.93 365.60 340.52 C 364.75 343.44 368.11 344.21 368.32 347.26 C 366.63 347.23 365.33 346.50 364.43 345.07 L 366.06 343.86 C 365.09 342.87 364.11 341.88 363.17 340.85 C 363.23 340.03 363.32 339.21 363.45 338.40 Z" fill="#010101" />
<path d="M 344.17 352.24 C 348.10 356.93 352.40 361.62 355.49 366.90 C 348.81 365.68 343.79 361.48 340.64 355.57 C 341.83 354.47 343.00 353.36 344.17 352.24 Z" fill="#e3011b" />
<path d="M 290.39 359.54 C 293.39 361.21 295.95 362.10 299.34 362.70 C 300.22 364.60 301.83 366.79 301.88 368.91 C 300.67 371.51 298.45 373.60 297.22 376.24 C 295.22 379.79 294.34 383.64 292.91 387.40 C 290.11 388.25 287.62 384.51 288.17 381.98 C 288.73 376.91 289.93 371.95 292.01 367.28 C 293.81 367.85 295.61 368.39 297.46 368.79 C 295.43 366.68 293.15 364.90 291.24 362.65 C 290.98 361.61 290.70 360.57 290.39 359.54 Z" fill="#fdfcfc" />
<path d="M 301.66 360.43 C 304.74 361.16 305.27 366.60 306.39 369.10 L 304.59 368.53 C 303.09 366.10 302.18 363.23 301.66 360.43 Z" fill="#fdfcfc" />
<path d="M 326.28 366.08 C 335.56 375.31 344.80 384.58 354.06 393.84 C 336.57 394.02 319.13 392.72 301.63 393.09 C 309.64 401.08 317.60 409.13 325.66 417.07 C 324.15 419.59 322.60 422.03 320.47 424.09 C 307.33 410.69 293.91 397.58 280.74 384.22 C 282.60 384.25 284.47 384.28 286.33 384.31 C 287.04 386.63 288.49 388.26 290.21 389.89 C 291.48 389.85 292.76 389.81 294.03 389.78 C 294.79 388.11 295.53 386.45 296.09 384.70 C 308.50 384.96 320.90 385.12 333.32 384.91 C 328.36 380.01 323.40 375.11 318.56 370.09 C 321.23 368.92 323.79 367.58 326.28 366.08 Z" fill="#fdfcfc" />
<path d="M 318.56 370.09 C 323.40 375.11 328.36 380.01 333.32 384.91 C 320.90 385.12 308.50 384.96 296.09 384.70 C 297.76 380.02 300.19 375.19 303.73 371.64 C 306.25 370.69 307.41 371.08 309.11 373.07 C 312.40 372.54 315.52 371.43 318.56 370.09 Z" fill="#e3011b" />
<path d="M 290.72 375.25 C 290.93 378.31 290.87 381.36 290.52 384.42 C 289.94 381.35 290.05 378.29 290.72 375.25 Z" fill="#e3011b" />
<path d="M 294.65 376.60 C 293.92 379.17 293.01 381.68 291.94 384.12 C 292.29 382.11 291.94 377.14 294.65 376.60 Z" fill="#010101" />
<path d="M 269.26 402.33 C 273.21 401.44 277.04 401.32 281.03 402.01 C 292.51 403.88 302.13 413.40 304.12 424.86 C 304.94 431.56 304.63 438.14 301.12 444.09 C 296.90 452.13 288.80 457.58 279.85 458.88 C 265.54 461.23 250.93 451.19 247.81 437.06 C 243.84 421.97 253.99 405.53 269.26 402.33 Z" fill="#fdfcfc" />
<path d="M 272.18 410.24 C 280.36 408.70 289.03 412.57 293.27 419.74 C 298.45 427.90 296.65 439.11 289.46 445.47 C 283.97 450.58 276.16 451.66 269.12 449.62 C 260.19 446.52 254.43 437.39 255.65 427.98 C 256.51 419.06 263.46 411.91 272.18 410.24 Z" fill="#e3011b" />
<path d="M 227.18 438.23 C 237.49 446.79 248.18 454.92 258.63 463.32 C 262.60 466.30 266.28 469.74 270.47 472.38 C 268.86 474.79 267.21 477.17 265.50 479.50 C 257.16 472.94 248.95 466.16 240.39 459.89 C 243.48 471.82 245.72 483.92 248.80 495.85 C 242.76 495.24 236.89 493.25 230.90 492.08 C 224.84 490.91 218.88 489.23 212.82 488.05 C 218.44 496.57 226.12 504.51 231.73 512.95 C 229.79 514.89 227.39 516.25 225.10 517.71 C 213.88 503.22 202.15 489.08 191.11 474.45 C 206.57 478.03 221.97 481.46 237.49 485.00 C 234.38 469.35 230.23 453.90 227.18 438.23 Z" fill="#fdfcfc" />
<path d="M 247.25 560.24 C 247.78 560.79 247.78 560.79 247.25 560.24 Z" fill="#fdfcfc" /></svg>