<?xml version="1.0" encoding="UTF-8" standalone="no"?>
<!DOCTYPE svg PUBLIC "-//W3C//DTD SVG 1.1//EN" "http://www.w3.org/Graphics/SVG/1.1/DTD/svg11.dtd">
<svg viewBox="0 0 216 178" height="178.0pt" width="216.0pt" xmlns="http://www.w3.org/2000/svg" version="1.1">
<path d="M 0.00 0.00 L 216.00 0.00 L 216.00 178.00 L 0.00 178.00 L 0.00 0.00 Z" fill="#ff00ff" />
<path d="M 10.11 10.11 C 12.72 9.90 15.38 9.99 18.00 9.99 C 47.98 10.05 77.98 9.94 107.96 10.04 C 108.04 62.68 108.00 115.33 107.98 167.97 L 106.02 167.97 C 105.94 116.00 106.07 64.01 105.96 12.04 C 74.66 11.97 43.34 11.97 12.04 12.04 C 11.93 64.01 12.06 116.00 11.98 167.97 L 10.02 167.97 C 9.96 118.32 10.03 68.66 9.99 19.00 C 10.00 16.05 9.88 13.06 10.11 10.11 Z" fill="#000000" />
<path d="M 31.32 73.19 C 34.28 72.87 37.61 72.65 40.52 73.35 C 42.16 75.50 43.54 77.85 45.07 80.07 C 43.36 85.37 41.46 90.61 39.88 95.95 C 50.61 96.02 61.25 95.86 71.94 96.82 C 71.85 93.20 69.59 90.93 68.58 87.42 C 66.79 82.44 68.96 77.82 72.18 74.04 C 81.11 73.96 90.05 73.97 98.98 74.04 C 98.63 77.40 100.44 81.86 96.57 83.57 C 91.95 86.14 90.88 91.35 90.12 96.16 C 90.35 104.26 93.48 110.56 96.15 117.93 C 93.75 117.98 91.35 118.00 88.95 118.00 C 90.77 120.35 93.06 122.85 93.06 126.01 C 92.96 131.45 88.48 135.80 83.07 135.95 C 78.31 135.05 74.01 132.31 73.93 126.98 C 73.46 123.00 75.83 120.84 78.07 118.00 C 71.02 117.99 63.98 117.99 56.93 118.00 C 59.90 121.48 62.45 124.54 60.38 129.37 C 58.79 134.33 52.84 136.98 48.10 134.94 C 44.45 133.84 41.99 129.65 41.93 126.00 C 41.73 122.80 44.27 120.33 46.04 117.97 C 45.13 118.01 44.21 118.06 43.29 118.11 C 40.85 123.07 38.60 128.17 35.85 132.97 C 30.53 133.04 25.21 133.03 19.89 133.00 C 23.10 128.39 27.31 124.69 30.57 120.18 C 28.63 118.14 26.72 116.19 25.25 113.76 C 23.50 111.44 23.86 107.91 24.11 105.16 C 25.50 100.40 29.38 98.42 32.07 94.91 C 30.84 89.85 28.68 84.95 26.91 80.05 C 28.33 77.76 29.61 75.29 31.32 73.19 Z" fill="#000000" /></svg>