<?xml version="1.0" encoding="UTF-8" standalone="no"?>
<!DOCTYPE svg PUBLIC "-//W3C//DTD SVG 1.1//EN" "http://www.w3.org/Graphics/SVG/1.1/DTD/svg11.dtd">
<svg viewBox="0 0 216 178" height="178.0pt" width="216.0pt" xmlns="http://www.w3.org/2000/svg" version="1.1">
<path d="M 0.00 0.00 L 216.00 0.00 L 216.00 178.00 L 0.00 178.00 L 0.00 0.00 Z" fill="#ff00ff" />
<path d="M 10.00 10.00 C 42.67 10.00 75.33 10.00 108.00 10.00 C 108.00 62.67 108.00 115.34 108.00 168.00 L 106.00 168.00 C 106.00 116.00 106.00 64.00 106.00 12.00 C 74.67 12.00 43.33 12.00 12.00 12.00 C 12.00 64.00 12.00 116.00 12.00 168.00 L 10.00 168.00 C 10.00 115.34 10.00 62.67 10.00 10.00 Z" fill="#0c0d0d" />
<path d="M 64.80 68.26 C 65.40 69.69 64.30 70.99 63.81 72.27 C 66.09 73.25 68.37 73.07 70.79 73.00 C 71.76 72.08 72.73 71.17 73.71 70.27 C 74.93 70.25 76.15 70.23 77.37 70.20 C 78.50 71.35 79.55 72.54 80.51 73.84 C 80.15 74.86 80.12 75.96 80.41 77.12 L 79.73 78.22 L 79.41 78.68 C 78.00 79.49 76.66 80.05 74.99 80.01 C 73.25 79.74 71.74 78.42 70.02 78.08 C 68.28 77.91 66.50 77.96 64.75 77.97 C 65.21 80.27 63.57 84.15 66.93 84.40 C 66.92 85.27 66.90 86.13 66.88 87.00 C 68.34 88.18 70.77 89.21 71.56 90.92 C 71.36 92.43 70.74 93.88 70.26 95.32 C 76.21 95.11 82.45 95.25 88.24 96.76 C 93.42 97.92 97.92 102.48 99.41 107.51 C 100.67 114.73 99.50 122.49 100.26 129.78 C 100.53 132.14 100.60 134.50 100.62 136.87 C 95.76 136.95 90.91 136.96 86.06 136.90 C 86.04 130.24 86.11 123.62 85.25 116.99 C 84.63 114.03 81.97 112.10 79.04 111.79 C 75.37 111.40 71.61 111.81 67.92 111.74 C 67.25 112.26 66.58 112.77 65.92 113.29 C 61.11 112.92 56.12 112.69 51.36 113.51 C 50.48 112.68 49.61 111.84 48.75 111.00 C 43.86 110.96 38.98 111.01 34.09 110.97 C 32.83 114.15 31.70 117.73 28.52 119.51 C 26.86 120.25 23.93 120.28 22.36 119.32 C 18.14 115.88 17.48 111.23 16.68 106.17 C 16.92 104.74 16.92 103.29 16.69 101.85 C 17.25 95.82 18.56 90.61 22.31 85.75 L 22.59 85.37 C 25.53 83.46 27.61 82.93 31.05 83.77 C 32.94 85.04 34.72 86.20 35.46 88.48 C 35.68 89.86 35.73 91.00 34.12 91.33 C 33.02 89.50 32.46 87.66 30.55 86.51 C 28.32 86.18 25.33 85.68 23.87 87.86 C 18.80 93.96 18.79 103.04 19.79 110.49 C 20.21 113.31 21.84 117.26 25.02 117.77 C 29.02 118.29 30.82 113.78 31.55 110.64 C 28.87 110.61 28.17 112.37 26.76 114.20 C 22.05 111.90 22.42 107.54 22.28 102.99 C 22.29 98.83 23.98 95.31 26.03 91.81 C 27.36 92.94 27.50 94.19 26.47 95.54 C 24.06 99.65 23.95 104.24 24.71 108.84 C 25.26 110.37 25.27 112.40 27.53 111.50 C 27.70 108.17 26.34 105.35 27.08 101.99 C 27.39 99.44 28.54 97.28 29.83 95.11 C 31.09 95.25 32.35 95.37 33.62 95.47 C 34.08 93.98 34.37 92.56 35.46 91.39 L 35.70 91.40 L 36.48 94.71 C 41.91 95.70 47.87 95.50 53.37 95.03 C 52.56 93.51 50.22 92.23 51.60 90.38 C 52.91 89.09 54.55 88.10 56.04 87.01 C 56.02 86.14 56.01 85.27 56.00 84.40 C 59.59 84.24 57.77 80.34 58.17 77.94 C 56.56 77.98 54.94 78.03 53.33 78.10 C 51.61 79.36 50.26 80.31 47.99 79.98 C 45.45 79.94 44.78 77.91 43.60 76.09 L 43.59 74.02 C 44.58 72.63 45.25 71.24 46.91 70.54 L 50.02 70.05 C 49.71 72.63 48.88 72.28 46.64 72.89 C 46.30 75.04 45.11 77.22 48.10 77.90 C 51.32 78.21 51.92 76.25 51.12 73.38 C 51.60 73.14 52.07 72.90 52.55 72.66 C 54.96 72.94 56.91 73.37 59.16 72.25 C 58.79 70.75 56.98 68.95 58.87 67.82 C 60.29 66.94 63.56 66.97 64.80 68.26 Z" fill="#0c0d0d" />
<path d="M 49.83 69.75 C 50.77 70.69 51.70 71.64 52.55 72.66 C 52.07 72.90 51.60 73.14 51.12 73.38 C 51.92 76.25 51.32 78.21 48.10 77.90 C 45.11 77.22 46.30 75.04 46.64 72.89 C 48.88 72.28 49.71 72.63 50.02 70.05 L 46.91 70.54 C 47.87 70.23 48.85 69.97 49.83 69.75 Z" fill="#fdfdfd" />
<path d="M 62.32 72.86 C 64.40 73.42 64.31 77.62 61.86 77.51 C 59.99 77.78 59.47 76.41 58.32 75.29 C 59.45 73.96 60.21 72.00 62.32 72.86 Z" fill="#fdfdfd" />
<path d="M 74.46 72.47 C 76.72 71.66 79.06 73.98 78.15 76.15 C 77.46 78.77 73.09 78.44 72.66 75.83 C 72.42 74.30 73.27 73.29 74.46 72.47 Z" fill="#fdfdfd" />
<path d="M 42.82 74.16 L 43.59 74.02 L 43.60 76.09 C 42.71 75.68 42.45 75.03 42.82 74.16 Z" fill="#fdfdfd" />
<path d="M 80.51 73.84 L 81.10 74.09 C 81.72 75.28 81.49 76.29 80.41 77.12 C 80.12 75.96 80.15 74.86 80.51 73.84 Z" fill="#fdfdfd" />
<path d="M 79.73 78.22 L 79.63 78.57 L 79.41 78.68 L 79.73 78.22 Z" fill="#fdfdfd" />
<path d="M 60.37 79.51 C 61.10 79.38 61.83 79.26 62.57 79.15 C 62.59 80.63 62.62 82.11 62.63 83.59 C 62.06 83.96 61.50 84.32 60.93 84.69 C 60.30 82.94 59.97 81.38 60.37 79.51 Z" fill="#fdfdfd" />
<path d="M 31.05 83.77 C 33.76 84.39 34.63 86.32 36.04 88.43 C 35.85 89.42 35.66 90.40 35.46 91.39 C 34.37 92.56 34.08 93.98 33.62 95.47 C 32.35 95.37 31.09 95.25 29.83 95.11 C 28.54 97.28 27.39 99.44 27.08 101.99 C 26.34 105.35 27.70 108.17 27.53 111.50 C 25.27 112.40 25.26 110.37 24.71 108.84 C 23.95 104.24 24.06 99.65 26.47 95.54 C 27.50 94.19 27.36 92.94 26.03 91.81 C 23.98 95.31 22.29 98.83 22.28 102.99 C 22.42 107.54 22.05 111.90 26.76 114.20 C 28.17 112.37 28.87 110.61 31.55 110.64 C 30.82 113.78 29.02 118.29 25.02 117.77 C 21.84 117.26 20.21 113.31 19.79 110.49 C 18.79 103.04 18.80 93.96 23.87 87.86 C 25.33 85.68 28.32 86.18 30.55 86.51 C 32.46 87.66 33.02 89.50 34.12 91.33 C 35.73 91.00 35.68 89.86 35.46 88.48 C 34.72 86.20 32.94 85.04 31.05 83.77 Z" fill="#fdfdfd" />
<path d="M 22.43 85.46 L 22.59 85.37 L 22.31 85.75 L 22.43 85.46 Z" fill="#fdfdfd" />
<path d="M 58.77 86.61 C 63.06 86.49 65.33 86.82 67.77 90.58 C 63.57 90.89 59.36 90.93 55.16 90.51 C 56.26 89.10 57.40 87.76 58.77 86.61 Z" fill="#fdfdfd" />
<path d="M 56.54 92.64 C 59.79 92.02 63.29 92.39 66.57 92.49 C 66.48 94.03 67.37 95.42 65.06 95.43 C 62.08 95.54 58.81 95.84 55.90 95.06 C 55.48 94.28 55.69 93.47 56.54 92.64 Z" fill="#fdfdfd" />
<path d="M 31.95 97.29 C 38.72 97.69 45.47 97.53 52.25 97.53 C 52.81 98.24 53.35 98.98 53.95 99.66 C 54.57 98.97 55.19 98.30 55.82 97.63 C 59.68 97.35 63.58 97.67 67.46 97.50 C 67.58 98.41 67.71 99.31 67.84 100.22 C 70.89 96.78 74.84 97.54 78.99 97.64 C 83.88 98.33 88.44 98.27 92.36 101.65 C 95.63 104.26 97.04 107.87 97.21 111.97 C 97.51 119.48 98.04 127.01 97.82 134.52 C 94.93 134.59 92.04 134.66 89.15 134.60 C 88.24 128.13 89.54 120.06 87.01 113.85 C 85.59 109.87 80.60 109.61 77.07 108.99 C 72.16 108.08 68.54 110.99 64.38 107.20 C 64.65 108.36 64.84 109.52 64.95 110.69 C 60.85 111.56 56.29 111.35 52.10 111.32 C 52.74 109.85 53.40 108.39 54.08 106.94 C 52.12 107.93 50.30 108.73 48.04 108.60 C 41.82 108.50 35.60 108.65 29.38 108.47 C 29.60 105.46 28.79 98.89 31.95 97.29 Z" fill="#fdfdfd" />
<path d="M 16.69 101.85 C 16.92 103.29 16.92 104.74 16.68 106.17 C 15.08 104.62 15.08 103.39 16.69 101.85 Z" fill="#fdfdfd" />
<path d="M 52.98 115.18 C 56.98 114.84 61.04 115.00 65.05 115.16 C 64.45 116.01 64.36 117.63 63.02 117.55 C 60.08 117.82 57.09 117.70 54.14 117.66 C 53.72 116.86 53.34 116.03 52.98 115.18 Z" fill="#0c0d0d" /></svg>