<?xml version="1.0" encoding="UTF-8" standalone="no"?>
<!DOCTYPE svg PUBLIC "-//W3C//DTD SVG 1.1//EN" "http://www.w3.org/Graphics/SVG/1.1/DTD/svg11.dtd">
<svg viewBox="0 0 216 178" height="178.0pt" width="216.0pt" xmlns="http://www.w3.org/2000/svg" version="1.1">
<path d="M 0.00 0.00 L 216.00 0.00 L 216.00 178.00 L 0.00 178.00 L 0.00 0.00 Z" fill="#ff00ff" />
<path d="M 10.00 10.00 C 42.67 10.00 75.33 10.00 108.00 10.00 C 108.00 62.67 108.00 115.33 108.00 168.00 L 106.00 168.00 C 106.00 116.00 106.00 64.00 106.00 12.00 C 74.67 12.00 43.33 12.00 12.00 12.00 C 12.00 64.00 12.00 116.00 12.00 168.00 L 10.00 168.00 C 10.00 115.33 10.00 62.67 10.00 10.00 Z" fill="#010101" />
<path d="M 64.57 58.51 C 72.39 59.59 78.77 64.94 79.90 72.94 C 80.21 79.59 80.40 86.09 78.37 92.52 C 77.32 96.61 75.97 100.62 74.37 104.54 C 73.59 106.59 72.68 108.59 71.73 110.57 C 70.49 112.99 69.50 115.50 68.46 118.00 C 65.15 118.00 61.83 117.99 58.51 118.00 L 58.51 119.00 C 61.67 119.00 64.84 119.00 68.00 119.00 L 68.00 120.01 C 62.15 119.81 56.78 119.98 51.03 121.20 L 50.95 120.15 L 54.41 119.78 C 53.35 119.43 52.28 119.08 51.22 118.75 C 50.35 116.67 49.48 114.60 48.69 112.50 C 47.37 109.86 46.34 107.12 45.18 104.41 C 45.05 103.80 44.93 103.18 44.80 102.57 C 44.28 101.20 43.77 99.82 43.23 98.46 C 42.24 94.85 41.31 91.24 40.58 87.58 C 39.68 82.23 39.65 75.75 40.59 70.41 C 40.77 69.77 40.95 69.12 41.13 68.48 C 43.06 64.49 44.84 62.61 48.44 60.09 C 53.75 58.23 58.97 57.24 64.57 58.51 Z" fill="#010101" />
<path d="M 66.42 60.09 C 71.90 62.00 76.38 65.24 78.01 71.06 C 81.08 80.83 76.96 93.11 73.72 102.46 C 71.35 107.41 69.75 114.42 65.28 117.85 C 64.38 110.77 66.18 104.69 63.54 98.48 C 63.29 97.08 62.94 96.00 63.68 94.67 C 67.32 86.80 70.91 79.48 71.29 70.60 C 69.60 69.19 68.82 67.21 66.25 68.03 C 63.09 70.77 62.02 76.05 60.68 79.87 C 59.95 75.97 58.86 73.01 56.34 69.93 C 54.79 69.96 53.24 69.99 51.68 70.02 C 49.66 77.78 52.13 84.18 54.23 91.51 C 55.24 93.82 56.23 96.13 57.33 98.40 C 55.83 104.70 55.47 110.84 56.78 117.22 C 55.18 116.61 51.79 116.87 51.25 114.91 C 46.16 104.29 42.35 92.76 41.04 81.03 C 40.52 73.41 42.13 65.09 49.47 61.21 C 55.16 59.11 60.52 59.81 66.42 60.09 Z" fill="#fce704" />
<path d="M 90.84 60.43 C 88.25 63.50 84.91 65.61 81.30 67.27 C 84.04 64.52 87.25 61.98 90.84 60.43 Z" fill="#010101" />
<path d="M 30.18 62.27 C 33.60 63.06 36.38 65.00 38.95 67.31 C 35.77 66.00 32.75 64.62 30.18 62.27 Z" fill="#010101" />
<path d="M 68.03 68.41 C 69.87 71.73 69.33 74.84 68.88 78.41 C 66.94 83.94 64.72 89.29 62.21 94.58 C 62.15 89.55 60.65 85.59 62.00 81.01 C 63.27 76.37 64.07 71.56 68.03 68.41 Z" fill="#fce704" />
<path d="M 53.32 70.68 C 54.99 71.30 56.55 71.82 57.29 73.60 C 59.98 79.06 60.08 86.06 60.21 92.00 C 60.34 94.31 60.01 96.54 59.58 98.81 C 55.42 92.79 53.60 84.92 52.22 77.83 C 51.71 74.97 51.95 73.23 53.32 70.68 Z" fill="#fce704" />
<path d="M 26.15 75.91 C 27.24 76.00 28.33 76.12 29.41 76.26 C 31.71 76.90 33.94 77.64 36.03 78.81 C 34.83 78.72 33.64 78.61 32.44 78.49 C 30.25 77.85 28.20 76.92 26.15 75.91 Z" fill="#010101" />
<path d="M 85.00 80.00 C 87.61 80.00 90.23 80.00 92.84 80.01 L 92.83 80.99 C 90.22 81.00 87.61 81.00 85.00 81.00 L 85.00 80.00 Z" fill="#010101" />
<path d="M 34.36 89.68 L 35.76 90.29 C 32.53 91.34 29.27 92.19 25.90 92.58 C 27.38 91.78 28.87 91.13 30.48 90.61 C 31.75 90.23 33.04 89.90 34.36 89.68 Z" fill="#010101" />
<path d="M 83.10 92.34 C 86.59 92.68 89.96 92.93 93.03 94.81 C 89.90 94.32 85.66 94.40 83.10 92.34 Z" fill="#010101" />
<path d="M 62.03 97.83 C 63.98 104.07 64.57 110.33 63.38 116.80 C 61.59 116.69 59.84 116.50 58.07 116.24 C 57.89 110.86 57.79 105.51 58.11 100.13 C 59.39 99.32 60.71 98.57 62.03 97.83 Z" fill="#fce704" />
<path d="M 39.92 102.71 C 37.43 105.82 33.78 108.05 30.11 109.51 C 32.92 106.71 36.45 104.58 39.92 102.71 Z" fill="#010101" />
<path d="M 82.21 105.57 C 85.50 107.19 88.88 109.06 90.88 112.26 C 87.79 110.40 84.60 108.31 82.21 105.57 Z" fill="#010101" />
<path d="M 45.66 112.35 C 43.66 115.18 41.15 117.67 38.33 119.68 C 40.33 116.85 42.82 114.33 45.66 112.35 Z" fill="#010101" />
<path d="M 77.34 115.90 C 80.44 118.01 83.17 120.65 85.33 123.72 C 81.97 121.94 79.21 119.21 77.34 115.90 Z" fill="#010101" />
<path d="M 67.96 120.84 L 68.02 121.98 C 66.88 121.99 65.74 122.00 64.61 122.01 L 64.55 123.00 C 65.70 123.00 66.86 123.00 68.01 123.00 L 68.00 123.87 C 62.26 123.93 56.78 125.41 51.00 125.05 L 51.00 124.00 C 53.78 124.00 56.55 124.00 59.33 124.00 L 59.36 123.00 C 56.57 123.00 53.79 123.00 51.00 123.00 L 51.00 122.00 C 56.79 122.28 62.25 121.73 67.96 120.84 Z" fill="#010101" />
<path d="M 51.00 126.05 C 56.98 126.08 63.09 125.64 69.02 126.44 C 67.49 127.40 65.88 128.86 64.02 128.89 C 59.70 129.19 55.34 128.95 51.01 128.98 L 51.00 128.01 C 55.45 127.99 59.90 128.00 64.35 128.00 L 64.37 127.00 C 59.92 127.00 55.47 127.02 51.01 126.96 L 51.00 126.05 Z" fill="#010101" />
<path d="M 68.01 130.00 L 68.01 131.42 C 65.33 133.01 62.80 134.81 60.34 136.71 C 57.36 134.98 54.57 132.98 51.65 131.18 C 57.08 129.94 62.47 129.87 68.01 130.00 Z" fill="#010101" /></svg>