<?xml version="1.0" encoding="UTF-8" standalone="no"?>
<!DOCTYPE svg PUBLIC "-//W3C//DTD SVG 1.1//EN" "http://www.w3.org/Graphics/SVG/1.1/DTD/svg11.dtd">
<svg viewBox="0 0 216 178" height="178.0pt" width="216.0pt" xmlns="http://www.w3.org/2000/svg" version="1.1">
<path d="M 0.00 0.00 L 216.00 0.00 L 216.00 178.00 L 0.00 178.00 L 0.00 0.00 Z" fill="#ff00ff" />
<path d="M 10.11 10.11 C 12.39 9.92 14.71 9.98 16.99 9.98 C 47.31 10.06 77.64 9.92 107.95 10.05 C 108.04 62.68 108.01 115.34 107.97 167.97 L 106.03 167.97 C 105.92 116.01 106.09 64.02 105.95 12.05 C 74.65 11.97 43.35 11.97 12.05 12.05 C 11.91 64.02 12.08 116.01 11.97 167.97 L 10.03 167.97 C 9.95 118.32 10.03 68.65 9.99 19.00 C 10.00 16.05 9.88 13.06 10.11 10.11 Z" fill="#010202" />
<path d="M 59.12 85.02 C 61.45 86.69 63.36 88.77 65.19 90.95 C 63.45 92.96 61.59 94.84 59.69 96.69 C 57.31 95.00 55.30 92.96 53.45 90.71 C 55.10 88.56 57.05 86.77 59.12 85.02 Z" fill="#010202" />
<path d="M 59.09 86.85 C 60.65 88.03 61.98 89.42 63.23 90.91 C 62.05 92.20 60.87 93.50 59.72 94.82 C 58.13 93.54 56.67 92.17 55.26 90.70 C 56.45 89.33 57.71 88.03 59.09 86.85 Z" fill="#ff00ff" />
<path d="M 59.04 88.26 C 60.11 88.93 61.05 89.79 61.86 90.85 C 61.16 91.65 60.46 92.45 59.77 93.25 C 58.88 92.80 58.10 92.24 57.44 91.57 C 56.14 90.21 58.32 89.22 59.04 88.26 Z" fill="#010202" /></svg>