<?xml version="1.0" encoding="UTF-8" standalone="no"?>
<!DOCTYPE svg PUBLIC "-//W3C//DTD SVG 1.1//EN" "http://www.w3.org/Graphics/SVG/1.1/DTD/svg11.dtd">
<svg viewBox="0 0 216 178" height="178.0pt" width="216.0pt" xmlns="http://www.w3.org/2000/svg" version="1.1">
<path d="M 0.00 0.00 L 216.00 0.00 L 216.00 178.00 L 0.00 178.00 L 0.00 0.00 Z" fill="#ff00ff" />
<path d="M 10.00 10.00 C 42.67 10.00 75.33 10.00 108.00 10.00 C 108.00 62.67 108.00 115.33 108.00 168.00 L 106.00 168.00 C 106.00 116.00 106.00 64.00 106.00 12.00 C 74.67 12.00 43.33 12.00 12.00 12.00 C 12.00 64.00 12.00 116.00 12.00 168.00 L 10.00 168.00 C 10.00 115.33 10.00 62.67 10.00 10.00 Z" fill="#000000" />
<path d="M 62.44 80.38 L 62.60 80.34 L 62.42 80.48 L 62.44 80.38 Z" fill="#667f6a" />
<path d="M 62.60 80.34 L 64.48 79.76 C 64.27 80.78 64.07 81.80 63.86 82.82 C 62.79 83.84 62.62 85.00 63.35 86.29 C 62.72 87.33 62.06 88.35 61.38 89.37 C 61.23 86.28 61.47 83.42 62.42 80.48 L 62.60 80.34 Z" fill="#132716" />
<path d="M 55.04 82.47 L 54.13 83.81 C 52.18 82.64 53.70 79.68 55.04 82.47 Z" fill="#495e4b" />
<path d="M 55.04 82.47 C 55.67 83.53 56.09 84.73 56.32 86.06 C 55.60 85.69 54.91 85.29 54.23 84.85 L 54.13 83.81 L 55.04 82.47 Z" fill="#091c0a" />
<path d="M 63.86 82.82 C 64.41 84.13 64.25 85.28 63.35 86.29 C 62.62 85.00 62.79 83.84 63.86 82.82 Z" fill="#687e6a" />
<path d="M 72.60 83.16 L 73.02 83.20 L 72.94 83.57 L 72.32 83.50 L 72.60 83.16 Z" fill="#8ba28e" />
<path d="M 72.32 83.50 L 72.94 83.57 C 72.61 86.85 70.36 88.86 67.65 90.45 C 68.78 87.47 69.95 85.57 72.32 83.50 Z" fill="#1a2c1b" />
<path d="M 54.23 84.85 C 54.91 85.29 55.60 85.69 56.32 86.06 L 56.53 87.95 C 54.93 88.04 54.27 86.17 54.23 84.85 Z" fill="#637766" />
<path d="M 45.98 85.93 L 48.18 86.24 L 48.74 86.46 C 50.14 87.67 52.57 88.65 52.40 90.83 L 49.94 89.68 L 49.59 89.47 L 49.26 89.30 C 48.33 88.70 47.41 88.08 46.51 87.45 L 46.43 87.35 L 45.98 85.93 Z" fill="#1c2c1f" />
<path d="M 48.18 86.24 L 48.49 86.28 L 48.74 86.46 L 48.18 86.24 Z" fill="#697b6d" />
<path d="M 46.43 87.35 L 46.51 87.45 L 46.45 87.41 L 46.43 87.35 Z" fill="#8fa493" />
<path d="M 79.86 87.89 C 79.75 89.65 78.53 90.30 77.02 90.79 L 76.60 89.11 C 77.53 88.12 78.62 87.71 79.86 87.89 Z" fill="#5a735e" />
<path d="M 49.26 89.30 L 49.59 89.47 L 49.94 89.68 L 49.26 89.30 Z" fill="#96b097" />
<path d="M 76.60 89.11 L 77.02 90.79 C 75.75 91.72 74.65 92.19 73.05 91.97 C 73.79 90.37 75.16 89.90 76.60 89.11 Z" fill="#283b2a" />
<path d="M 50.88 93.67 C 48.82 94.03 46.61 94.21 44.66 93.28 L 44.50 92.92 C 46.26 91.48 49.15 92.75 50.88 93.67 Z" fill="#314a37" />
<path d="M 54.16 92.06 C 58.70 91.94 63.24 91.99 67.78 92.11 C 70.11 94.18 72.20 95.04 75.23 95.68 C 77.06 97.24 79.16 98.28 81.24 99.44 C 81.05 100.05 80.86 100.66 80.65 101.27 C 77.37 98.72 73.75 96.88 69.73 95.80 L 70.54 97.75 C 74.61 99.87 78.97 101.35 82.77 104.18 C 84.15 105.58 85.32 106.81 83.76 108.65 C 80.03 108.31 76.34 107.32 72.64 106.74 C 73.73 106.38 74.82 106.05 75.92 105.75 C 78.38 106.13 80.81 106.62 83.27 106.99 C 80.22 103.68 76.38 101.90 72.24 100.35 L 72.03 99.54 C 71.49 100.68 70.95 101.81 70.40 102.94 C 69.94 101.38 69.47 99.83 68.99 98.27 C 68.79 97.16 68.55 96.06 68.26 94.98 C 65.02 92.64 59.73 93.72 55.92 93.64 C 55.86 95.02 55.82 96.40 55.81 97.78 C 58.74 98.01 59.30 97.62 61.34 95.56 C 62.93 95.47 64.52 95.38 66.11 95.28 C 66.62 96.37 67.14 97.46 67.66 98.54 C 67.46 99.22 67.26 99.91 67.07 100.60 C 67.97 101.42 68.86 102.26 69.73 103.12 C 68.13 102.36 66.55 101.54 64.95 100.75 C 64.67 101.96 64.38 103.16 64.10 104.36 C 63.44 102.96 62.79 101.55 62.13 100.15 C 61.42 101.20 60.70 102.26 59.99 103.31 C 58.83 103.41 57.67 103.52 56.51 103.65 C 60.12 106.01 65.74 105.25 69.80 104.67 L 71.57 102.25 L 71.96 103.25 L 72.18 104.00 C 72.20 106.05 73.27 107.22 70.66 108.05 C 75.24 109.16 80.97 110.15 84.53 113.43 C 85.81 114.36 86.83 115.77 88.53 115.78 L 88.70 115.81 L 88.71 115.59 C 89.04 111.87 88.33 109.11 86.53 105.90 C 89.56 105.64 89.87 108.76 90.39 110.97 C 90.63 115.04 90.98 119.79 89.40 123.62 C 86.98 127.38 82.52 129.89 78.52 131.66 C 67.51 136.39 54.73 138.11 42.97 135.50 C 38.38 134.57 33.82 132.73 30.02 129.97 C 26.15 126.58 24.42 121.01 24.29 116.01 C 24.38 110.92 28.36 106.95 32.32 104.27 C 37.54 100.76 43.29 97.24 49.42 95.64 C 49.94 96.03 50.45 96.42 50.96 96.81 C 43.74 98.98 37.14 102.57 31.24 107.25 C 29.07 109.03 27.33 111.25 26.51 113.97 C 26.09 116.06 26.56 118.37 26.73 120.47 C 28.94 117.98 30.84 115.49 33.81 113.83 C 40.39 110.17 47.21 108.90 54.50 107.59 C 55.21 104.80 51.44 106.10 49.97 106.20 C 47.05 106.67 44.04 107.68 41.10 107.75 C 39.54 107.76 37.71 105.56 39.23 104.29 C 42.57 100.89 47.45 98.80 52.09 97.93 C 51.63 97.09 51.18 96.25 50.74 95.41 L 50.87 95.27 C 51.99 94.22 53.09 93.16 54.16 92.06 Z" fill="#05040a" />
<path d="M 44.50 92.92 L 44.66 93.28 C 44.21 93.15 44.16 93.03 44.50 92.92 Z" fill="#78917b" />
<path d="M 55.92 93.64 C 59.73 93.72 65.02 92.64 68.26 94.98 C 68.55 96.06 68.79 97.16 68.99 98.27 C 69.47 99.83 69.94 101.38 70.40 102.94 C 70.95 101.81 71.49 100.68 72.03 99.54 L 72.24 100.35 C 72.13 101.32 72.04 102.29 71.96 103.25 L 71.57 102.25 L 69.80 104.67 C 65.74 105.25 60.12 106.01 56.51 103.65 C 57.67 103.52 58.83 103.41 59.99 103.31 C 60.70 102.26 61.42 101.20 62.13 100.15 C 62.79 101.55 63.44 102.96 64.10 104.36 C 64.38 103.16 64.67 101.96 64.95 100.75 C 66.55 101.54 68.13 102.36 69.73 103.12 C 68.86 102.26 67.97 101.42 67.07 100.60 C 67.26 99.91 67.46 99.22 67.66 98.54 C 67.14 97.46 66.62 96.37 66.11 95.28 C 64.52 95.38 62.93 95.47 61.34 95.56 C 59.30 97.62 58.74 98.01 55.81 97.78 C 55.82 96.40 55.86 95.02 55.92 93.64 Z" fill="#f7f7fa" />
<path d="M 79.65 94.18 L 79.02 95.32 C 77.89 95.38 76.81 95.24 75.79 94.89 C 76.76 94.12 78.53 93.44 79.65 94.18 Z" fill="#0c260f" />
<path d="M 49.80 95.55 L 50.74 95.41 C 51.18 96.25 51.63 97.09 52.09 97.93 C 47.45 98.80 42.57 100.89 39.23 104.29 C 37.71 105.56 39.54 107.76 41.10 107.75 C 44.04 107.68 47.05 106.67 49.97 106.20 C 51.44 106.10 55.21 104.80 54.50 107.59 C 47.21 108.90 40.39 110.17 33.81 113.83 C 30.84 115.49 28.94 117.98 26.73 120.47 C 26.56 118.37 26.09 116.06 26.51 113.97 C 27.33 111.25 29.07 109.03 31.24 107.25 C 37.14 102.57 43.74 98.98 50.96 96.81 C 50.45 96.42 49.94 96.03 49.42 95.64 L 49.80 95.55 Z" fill="#f8f20c" />
<path d="M 66.60 96.60 C 66.18 97.97 65.76 99.34 65.32 100.71 C 62.99 100.29 61.64 99.64 59.83 98.14 C 62.11 95.46 63.54 96.29 66.60 96.60 Z" fill="#eeefef" />
<path d="M 69.73 95.80 C 73.75 96.88 77.37 98.72 80.65 101.27 C 80.86 100.66 81.05 100.05 81.24 99.44 C 81.71 99.81 82.15 100.22 82.58 100.66 C 82.03 103.10 85.11 104.31 86.53 105.90 C 88.33 109.11 89.04 111.87 88.71 115.59 L 88.53 115.78 C 86.83 115.77 85.81 114.36 84.53 113.43 C 80.97 110.15 75.24 109.16 70.66 108.05 C 73.27 107.22 72.20 106.05 72.18 104.00 C 73.11 104.73 74.11 105.23 75.22 105.61 L 75.92 105.75 C 74.82 106.05 73.73 106.38 72.64 106.74 C 76.34 107.32 80.03 108.31 83.76 108.65 C 85.32 106.81 84.15 105.58 82.77 104.18 C 78.97 101.35 74.61 99.87 70.54 97.75 L 69.73 95.80 Z" fill="#faf710" />
<path d="M 52.98 99.36 C 53.22 100.89 53.42 102.42 53.62 103.95 C 49.03 104.93 44.50 105.91 39.80 106.17 C 41.92 102.57 45.34 101.64 48.89 99.97 C 50.41 99.27 51.31 98.89 52.98 99.36 Z" fill="#ff00ff" />
<path d="M 61.30 99.50 L 58.44 103.02 C 57.55 102.05 56.53 101.37 56.58 99.91 C 57.48 97.41 59.54 99.23 61.30 99.50 Z" fill="#fafaf5" />
<path d="M 72.24 100.35 C 76.38 101.90 80.22 103.68 83.27 106.99 C 80.81 106.62 78.38 106.13 75.92 105.75 L 75.22 105.61 C 74.11 105.23 73.11 104.73 72.18 104.00 L 71.96 103.25 C 72.04 102.29 72.13 101.32 72.24 100.35 Z" fill="#ff00ff" />
<path d="M 82.58 100.66 C 84.75 101.87 86.54 103.50 88.29 105.23 L 86.53 105.90 C 85.11 104.31 82.03 103.10 82.58 100.66 Z" fill="#05040a" />
<path d="M 57.99 108.93 C 63.25 108.53 68.69 109.56 73.89 110.35 C 79.88 111.59 85.79 114.20 88.53 120.04 C 87.10 124.62 83.75 127.05 79.66 129.14 C 77.93 127.41 76.82 125.54 75.84 123.31 C 74.16 123.15 72.47 123.01 70.78 122.93 C 72.68 122.18 74.54 121.21 76.49 120.62 C 77.87 122.75 78.07 125.07 78.62 127.50 C 80.99 125.74 85.55 123.41 85.75 120.13 C 85.34 117.31 81.53 115.77 79.25 114.75 C 70.84 110.96 61.99 110.88 53.02 112.22 C 44.82 112.82 37.19 115.60 30.82 120.84 L 30.14 121.04 C 29.67 122.03 29.88 122.98 30.79 123.91 C 33.24 127.26 35.20 128.59 39.09 129.97 C 38.80 130.66 38.51 131.35 38.21 132.04 C 34.94 130.87 30.62 129.09 28.79 125.97 C 27.73 122.81 28.83 119.48 31.45 117.44 C 39.19 111.29 48.45 109.89 57.99 108.93 Z" fill="#dddc35" />
<path d="M 79.25 114.75 C 81.53 115.77 85.34 117.31 85.75 120.13 C 85.55 123.41 80.99 125.74 78.62 127.50 C 78.07 125.07 77.87 122.75 76.49 120.62 C 74.54 121.21 72.68 122.18 70.78 122.93 C 63.80 125.42 56.38 126.79 48.99 125.60 C 45.35 125.18 42.02 123.91 38.50 122.95 C 38.58 125.02 38.92 127.03 39.25 129.06 L 39.09 129.97 C 35.20 128.59 33.24 127.26 30.79 123.91 C 31.37 122.85 31.38 121.82 30.82 120.84 C 37.19 115.60 44.82 112.82 53.02 112.22 C 61.99 110.88 70.84 110.96 79.25 114.75 Z" fill="#080a10" />
<path d="M 78.96 116.23 C 68.86 123.53 55.17 125.97 43.20 122.40 C 41.17 121.82 37.72 120.86 37.11 118.56 C 40.24 116.67 43.66 115.46 47.20 114.62 C 57.64 111.98 68.91 112.18 78.96 116.23 Z" fill="#ff00ff" />
<path d="M 88.71 115.59 L 88.70 115.81 L 88.53 115.78 L 88.71 115.59 Z" fill="#919c58" />
<path d="M 30.14 121.04 L 30.82 120.84 C 31.38 121.82 31.37 122.85 30.79 123.91 C 29.88 122.98 29.67 122.03 30.14 121.04 Z" fill="#ce7893" />
<path d="M 38.50 122.95 C 42.02 123.91 45.35 125.18 48.99 125.60 C 56.38 126.79 63.80 125.42 70.78 122.93 C 72.47 123.01 74.16 123.15 75.84 123.31 C 76.82 125.54 77.93 127.41 79.66 129.14 C 66.76 134.76 51.76 135.95 38.21 132.04 C 38.51 131.35 38.80 130.66 39.09 129.97 L 39.25 129.06 C 38.92 127.03 38.58 125.02 38.50 122.95 Z" fill="#fdf30a" /></svg>